<?xml version="1.0" encoding="UTF-8" standalone="no"?>
<svg
   xmlns:dc="http://purl.org/dc/elements/1.1/"
   xmlns:cc="http://creativecommons.org/ns#"
   xmlns:rdf="http://www.w3.org/1999/02/22-rdf-syntax-ns#"
   xmlns:svg="http://www.w3.org/2000/svg"
   xmlns="http://www.w3.org/2000/svg"
   xmlns:sodipodi="http://sodipodi.sourceforge.net/DTD/sodipodi-0.dtd"
   xmlns:inkscape="http://www.inkscape.org/namespaces/inkscape"
   width="13.8889in"
   height="13.8889in"
   viewBox="0 0 1000 1000"
   version="1.1"
   id="svg3723"
   sodipodi:docname="logo2.svg"
   inkscape:version="0.92.4 (5da689c313, 2019-01-14)">
  <metadata
     id="metadata3729">
    <rdf:RDF>
      <cc:Work
         rdf:about="">
        <dc:format>image/svg+xml</dc:format>
        <dc:type
           rdf:resource="http://purl.org/dc/dcmitype/StillImage" />
        <dc:title></dc:title>
      </cc:Work>
    </rdf:RDF>
  </metadata>
  <defs
     id="defs3727" />
  <sodipodi:namedview
     pagecolor="#ffffff"
     bordercolor="#666666"
     borderopacity="1"
     objecttolerance="10"
     gridtolerance="10"
     guidetolerance="10"
     inkscape:pageopacity="0"
     inkscape:pageshadow="2"
     inkscape:window-width="1920"
     inkscape:window-height="1017"
     id="namedview3725"
     showgrid="false"
     inkscape:zoom="0.6374995"
     inkscape:cx="302.38106"
     inkscape:cy="622.94935"
     inkscape:window-x="-8"
     inkscape:window-y="-8"
     inkscape:window-maximized="1"
     inkscape:current-layer="svg3723" />
  <path
     d="m 87.518833,532.1106 c 6.94,-1.57 23.709997,-5.7 28.999997,-9.57 11.68,-8.53 13.51,-27.1 2.7,-37.04 -8.52,-7.84 -22.229997,-3.27 -29.269997,-10.78 -3.98,-4.24 -2.35,-17.36 2.78,-20.18 3.33,-1.83 9.949997,-1.39 13.789997,-1.43 7.8,-0.1 15.82,-2.75 21.32,-8.75 7.01,-8.07 7.36,-23.03 0,-31.07 -6.07,-6.96 -21.75,-8.39 -26.71,-15.39 -2.399997,-3.39 0.13,-10.13 1.43,-13.79 0.66,-1.85 1.43,-3.91 3.23,-4.87 2.19,-1.32 5.4,-0.37 7.73,0 0,0 15,1.86 15,1.86 9.66,0.21 15.64,-2.96 21.36,-10.99 6.97,-9.79 6.62,-22.87 -3.36,-30.39 -5.76,-4.34 -17.95,-9.8 -16.64,-18.61 0.79,-5.32 5.58,-13.08 11.64,-12.74 4.04,0.24 18.55,6.87 26,6.21 5.16,-0.45 8.24,-1.97 11.99,-5.52 10.99,-10.43 14.8,-21.7 3.55,-33.66 -3.96,-4.21 -16.8,-14.09 -13.24,-20.71 1.59,-2.96 8.36,-11.17 11.7,-11.49 2.49,-0.23 9.45,4.29 12,5.75 12.62,6.79 22.93,12.21 34.83,0 5.77,-5.82 10.14,-13.36 7.52,-21.84 -3.19,-10.36 -20.15,-21.1 -7.31,-32.56 1.1,-0.98 3.71,-3.04 4.96,-3.74 6.11,-3.4 10.7,2.9 15,6.57 7.87,6.7 17.17,13.58 28,9.46 12.42,-4.72 21.28,-16.52 15.66,-29.73 -2.4,-5.66 -10.31,-19.19 -4.5,-24.1 2.51,-2.11 12.46,-8.09 15.54,-6.75 1.97,0.86 4.83,5.05 6.15,6.85 3.1,4.23 8.38,11.18 12.32,14.45 14.88,12.33 36.26,-1.26 37.39,-15.46 0,0 -2.55,-19.99 -2.55,-19.99 -0.05,-2.28 -0.19,-5.69 1.01,-7.67 2.44,-4 13.64,-7.65 17.85,-5.3 3.09,1.72 6,8.73 7.6,11.97 4.81,9.73 12.22,20.16 24.53,18.69 8.91,-1.07 18.46,-5.62 21.47,-14.69 0,0 1.15,-23 1.15,-23 0.51,-2.82 1.04,-6.16 3.66,-7.83 1.67,-1.06 4.66,-1.28 6.63,-1.73 2.21,-0.07 4.62,-0.35 6.84,0 8.37,0.35 7.29,9.28 9.28,15.56 3.86,12.18 9.14,23.77 23.97,23.82 9.56,0.03 18.92,-5.54 22.08,-14.82 3.35,-9.81 0.78,-24.95 15.92,-24.19 3.09,0.16 8.16,0.54 10.4,2.89 2.15,2.25 2.42,11.04 2.68,14.3 0.84,10.45 3.04,21.35 13.92,25.87 2.5,1.04 6.29,1.84 9,1.88 2.08,0.31 6.03,0.33 8,0 15.17,-3.94 15.18,-25.79 23.53,-31.97 3.41,-2.53 17.16,1.55 19.47,4.87 0.75,1.07 0.8,2.14 0.78,3.39 0,0 -2.69,22.96 -2.69,22.96 1.07,17.31 21.96,28.9 34.91,19.29 8.97,-6.65 12.25,-18.72 20,-22.06 4.1,-1.77 11.78,2.66 14.85,5.38 5.53,4.88 0.28,13.55 -1.43,19.39 -3.66,12.53 -4.72,20.43 6.62,29.64 6.08,4.93 16.86,7.89 23.96,3.52 0,0 14.83,-13.64 14.83,-13.64 2.09,-1.82 5.26,-4.72 8.17,-4.68 2.86,0.04 6.78,3.32 9,5.05 1.67,1.3 4.28,3.3 5.3,5.15 2.28,4.15 -3.49,11.19 -5.53,14.96 -5.96,11.02 -11.16,21.9 -1.44,32.91 4.83,5.47 13,11.18 20.67,9.31 12.08,-2.93 23.57,-22.45 35.33,-8.18 1.19,1.45 3.22,4.26 3.95,5.96 2.59,6.08 -3.97,10.67 -7.62,14.74 -6.71,7.49 -13.27,16.95 -9.18,27.26 4.22,10.65 14.14,21.2 26.52,16.67 6.52,-2.38 21.33,-12.01 27.22,-5.44 2.38,2.66 7.14,11.08 6.08,14.68 -0.86,2.91 -4.95,5.36 -7.3,7.1 -3.96,2.94 -9.94,8.17 -12.96,12.03 -6.82,8.72 -5.84,15.45 -1.6,24.96 3.54,7.94 10.47,13.57 19.56,12.35 8.57,-1.16 20.85,-7.81 27,1.69 2.13,3.29 4.6,11.23 2.22,14.75 -2.85,4.22 -16.49,8.44 -21.55,13 -3.93,3.54 -9.28,11.86 -8.62,17.37 1.44,12.08 6.07,23.65 19.95,23.84 5.08,0.06 19.99,-0.62 23.49,2.59 2.19,2.02 2.67,6.55 3.08,9.41 0.4,2.77 1.17,7.84 -1.14,9.91 -2.09,1.87 -10.27,2.96 -13.43,3.83 -13.99,3.88 -25.28,10.8 -23.83,27.26 0.98,11.09 4.72,17.37 15.83,20.24 7.57,1.95 21.13,1.32 21.9,11.76 0.23,3.01 -0.49,11.13 -2.64,13.26 -2.17,2.16 -6.42,1.65 -9.26,1.78 -3.86,0.17 -14.52,1.89 -18,3.23 -11.48,4.42 -14.45,13.43 -14.98,24.73 -0.33,6.86 4.02,13.53 9.98,16.73 0,0 12,4.91 12,4.91 5.04,2.64 11.23,4.75 10.29,11.36 -0.52,3.69 -1.95,12.14 -5.43,13.89 -2.51,1.26 -9.77,-0.49 -12.86,-0.84 -13.47,-1.51 -26.26,-2.3 -32.45,12.95 -3.19,7.86 -4.42,17.15 1.66,23.96 7.21,8.06 26.24,11.13 18.96,26.04 -0.76,1.54 -2.03,3.61 -3.1,4.94 -1.14,1.43 -2.35,2.81 -4.16,3.37 -3.43,1.06 -16.39,-4.1 -20.49,-5.27 -12.02,-3.44 -23.14,2.94 -28.37,13.96 -1.41,2.97 -2.89,8.73 -2.49,12 1.04,8.67 10.24,14.46 15.44,21 2.57,3.24 6.08,7.17 4.17,11.58 -1.51,3.5 -7.11,10.93 -11.18,11.17 -4.47,0.26 -10.25,-4.1 -13.99,-6.3 -9.93,-5.84 -18.64,-9.35 -29,-2.23 -3.02,2.08 -4.86,3.9 -7.1,6.79 -2.73,3.53 -5.03,6.57 -5.01,11.16 0.05,14.34997 11.19,17.91997 12.76,29.82997 0.98,7.39 -9.35,14.44 -15.65,16 -3.65,-4.99 -8.27,-8.33 -13,-12.25 -4.79,-3.96 -8.5,-7.2 -15,-7.65 -11.44,-0.8 -25.69,10.1 -26.11,21.9 -0.31,8.8 9.62,21.42 7.76,29.96 -0.9,4.11 -8.85,8.41 -12.65,9.63 -6.79,2.18 -12.87,-10.05 -16.61,-14.59 -10,-12.11 -21.11,-14.55 -34.39,-5.2 -10.2,7.18 -9.6,14.35 -7.63,25.24 1.09,6.01 3.75,14.7 -2.48,18.55 -3.44,2.12 -12.14,5.15 -15.79,2.77 -4.82,-3.14 -9.14,-18.27 -15.28,-24.03 -9.67,-9.07 -27.75,-5.69 -35.17,4.67 -3.31,4.62 -3.59,9.52 -3.65,15 -0.06,6.34 1.85,17.49 -5.04,20.6 -1.99,0.89 -5.61,0.74 -7.96,1.05 -3.16,0.41 -6,1.32 -8.69,-1.12 -2.36,-2.14 -3.35,-9.18 -4.31,-12.53 -2.86,-9.99 -4.21,-18.7 -15,-23.07 -3.16,-1.28 -6.58,-1.99 -10,-1.75 -12.32,0.89 -19.3,5.96 -21.91,18.4 -1.1,5.22 -1.57,15.17 -6.36,18.44 -1.98,1.35 -9.05,1.36 -11.73,1.37 -9.4,0.04 -8.61,-5.49 -9.09,-12.39 0,0 -1.19,-10 -1.19,-10 -2.09,-14.67 -11.63,-22.96 -26.72,-21.9 -14.05,0.98 -15.72,10.88 -20.66,20.9 -2.37,4.82 -4.94,11.94 -11.34,11.65 -3.72,-0.16 -13.09,-2.41 -14.66,-5.87 -1.42,-2.3 -0.16,-7.2 0,-9.78 1.16,-5.95 2.22,-13.01 1.48,-19 -1.12,-8.97 -7.7,-14.4 -15.82,-17.3 -3.41,-1.22 -6.36,-1.86 -10,-1.6 -6.86,0.47 -12.19,4.14 -15.79,9.9 -3.3,5.27 -8,15.23 -15.21,15.48 -5.47,0.18 -15.75,-5.28 -15.48,-11.48 0,0 3.12,-10 3.12,-10 3.63,-12.88 6.37,-25.21 -6.64,-33.9 -2.22,-1.48 -5.47,-3.15 -8,-4 -12.29,-4.12 -18.13,4.37 -26,11.86 -2.69,2.56 -8.14,7.44 -12,7.54 -3.14,0.08 -6.61,-2.81 -9,-4.63 -1.38,-1.05 -3.61,-2.73 -4.67,-4.04 -0.97,-1.21 -1.59,-2.24 -1.6,-3.83 -0.01,-2.11 6.74,-13.21 8.25,-16 7.27,-13.42997 7.63,-24.48997 -5.98,-34.20997 -6.62,-4.73 -16.13,-5.62 -23,-1.01 -6.35,4.27 -15.87,13.55 -23.96,8.33 -3.72,-2.4 -9.33,-9.36 -7.72,-14.11 0.74,-2.19 6.48,-8.74 8.28,-11 7.91,-9.9 14.29,-18.83 6.29,-31 -4.12,-6.27 -11.77,-13.57 -19.89,-12.8 0,0 -21,7.21 -21,7.21 -3.37,0.93 -6.63,2.3 -9.79,0 -2.11,-1.55 -5.07,-6.95 -6.23,-9.41 -4.37,-9.3 3.53,-11.26 10.02,-16.45 9.34,-7.46 15.97,-13.66 13.53,-26.55 -2.09,-11.09 -10.57,-20.72 -22.53,-19.9 -5.63,0.38 -8.32,2.71 -16,2.89 -2.4,0.05 -5.77,0.17 -7.9,-1.01 -4.32,-2.4 -8.41,-12.99 -5.82,-17.51 1.5,-2.63 6.1,-4.43 8.72,-5.91 5.5,-3.1 14.36,-7.76 18.06,-12.65 7.21,-9.53 3.3,-27.75 -7.06,-33.69 -7.3,-4.18 -14,-3.15 -22,-3.22 -2.959997,-0.03 -8.319997,0 -10.699997,-1.88 -3.28,-2.59 -3.29,-12.12 -3.3,-16.12 0,0 0,-4 0,-4 z m 389.999997,-363 c 7.37,-0.6 6.46,-3.88 3.76,-4.71 -3.25,-0.99 -13.32,-0.13 -16.76,0.71 1.48,4.21 2.83,3.85 7,4 0,6.22 -0.56,15.38 4,20 3.15,-5.97 2,-13.4 2,-20 z m -18,2 c -3.94,-12.34 -24.48,0.38 -12.89,8.15 1.2,0.8 2.49,1.22 3.89,1.68 1.92,0.22 4.98,0.16 7,0 -0.99,3.14 -1.55,4.41 -5.02,4.66 -1.68,0.12 -5.58,-0.97 -6.49,1.03 -1.08,2.38 2.87,3.83 4.52,4.12 5.72,1.05 13.17,-2.95 11.54,-9.6 -2.07,-8.45 -10.6,-1.15 -13.55,-10.04 0,0 11,0 11,0 z m 55,15 c 0,0 5.96,-5.17 5.96,-5.17 9.66,-9.31 1.12,-15.49 -4.94,-14.59 -5.67,0.84 -6.51,6.2 -3.78,6.87 0,0 7.76,-2.11 7.76,-2.11 -1.17,6.93 -5.84,7.69 -9.67,13 -2.7,3.74 -1.53,5.56 2.69,6.73 0,0 3.98,0 3.98,0 2.53,0.25 3.63,-0.06 6,-0.73 0,0 0,-2 0,-2 0,0 -8,-2 -8,-2 z m -88,-6.21 c 1.09,-3.21 1.49,-3.87 5.02,-5.09 1.66,-0.57 5.7,-1.1 5.64,-3.55 -0.04,-2.16 -3.27,-1.99 -4.68,-1.83 -3.46,0.37 -11.08,1.81 -11.92,5.79 -0.6,2.87 3.85,18.31 6.36,19.83 4.12,2.5 12.79,-1.86 15.58,-4.94 -8.43,-4.05 -10.83,3.46 -14,-5 2.16,-0.18 8.73,-0.65 8.66,-3.85 -0.01,-0.76 -0.51,-1.25 -1.15,-1.36 -1.67,-1.05 -7.34,0.03 -9.51,0 z m 109,-2.79 c 0,0 -2.78,12.96 -2.78,12.96 -0.03,1.31 0.12,3.66 1.94,3.7 1.84,0.04 2.83,-2.28 3.36,-3.68 0,0 3.29,-13.98 3.29,-13.98 1.21,-7.78 -6.34,-6.55 -9.81,0 0,0 4,1 4,1 z m -47.73,6.74 c -3.18,2.77 -0.02,4.49 1.46,3.93 1.41,-0.54 2.95,-3.7 -1.46,-3.93 z m -16.27,25.54 c 0,0 -22,1.88 -22,1.88 -14.64,1.57 -32.88,5.35 -47,9.56 -71.75,21.38 -133.67,69.58 -170.14,135.28 -55.82,100.55 -47.52,222.96 21.61,315 18,23.96 40.14,44.69 64.53,62 21.1,14.97 49.29,29.26 74,37.02 21.33,6.69997 42.7,11.68997 65,13.93997 0,0 10,0 10,0 0,0 10,1.04 10,1.04 44.32,0.51 91.21,-8.86 131,-28.74997 25.67,-12.84 46.58,-26.05 68,-45.42 62.87,-56.85 95.98,-136.55 95,-220.83 0,0 -0.91,-10 -0.91,-10 -1.72,-25.18 -5,-45.83 -12.75,-70 -30.93,-96.51 -107.06,-167.8 -205.34,-192.37 -21.91,-5.48 -58.73,-10.42 -81,-8.35 z m -15,15.93 c 0,0 6,0 6,0 11.4,-0.34 15.27,-0.81 26,4.1 0,0 19,9 19,9 2.19,1 6.85,3.61 9,3.78 7.81,0.61 10.34,-12.47 22,-11.88 6.61,0.33 25.15,5.84 32,8.12 6.42,2.14 13.32,4 19,7.77 5.97,3.97 10.73,10.47 15.42,15.9 2.41,2.79 5.87,6.94 9.58,7.81 3.83,0.9 7.58,-1.7 11,-2.19 5.16,-0.74 10.88,3.48 15,6.27 7.96,5.38 28.3,22.28 34.38,29.2 8.99,10.21 10.03,19.44 13.62,31.91 0.99,3.45 2.97,11.21 4.84,13.89 5.15,7.38 13.52,1.64 20.15,5.85 3.83,2.43 7.51,8.28 9.7,12.26 4.96,9.03 14.19,28.03 14.31,38 0.1,8.38 -1.14,16.73 -2.42,25 -0.66,4.21 -2.39,11.03 -0.84,14.98 3,7.67 11.65,6.13 15.61,10.44 2.47,2.68 3.16,7.1 3.65,10.58 0,0 2,23 2,23 0.06,11.97 1.15,20.61 -3.45,32 0,0 -11.89,23 -11.89,23 -1.03,6.85 7.19,9.8 7.08,18 -0.06,4.34 -2.4,10.79 -3.72,15 0,0 -11.33,31 -11.33,31 -6.12,13.57 -9.34,17.25 -21.69,25.66 -4.48,3.04 -19.02,11.8 -21.4,15.38 -4.35,6.55 3.72,13.16 0.89,22.96 -1.44,5.01 -6.88,10.38 -10.49,14 -6.28,6.31 -17.66,17.64 -25,22.19 -6.7,4.15 -23.68,6.18 -32,7.56 -3.51,0.59 -10.02,1.25 -12.77,3.26 -4.16,3.02 -2.91,7.59 -3.4,11.99 -0.6,5.32 -2.44,8.79 -6.87,11.9 -8.7,6.09 -24.67,10.93 -34.96,14.12 -6.18,1.92 -15.54,5.14 -22,4.77 0,0 -27,-5.56 -27,-5.56 -7.21,0.6 -8.1,9.09 -14.09,12.2 -4.72,2.45 -22.73,1.64 -28.91,1.57 0,0 -27,-2.72 -27,-2.72 -6.3,-0.82 -11.34,-0.95 -17,-4.4 0,0 -21,-16.63 -21,-16.63 -2.65,-2.19 -7.8,-6.63 -11,-7.51 -5.38,-1.48 -9.02,3.79 -13,6.41 -5.09,3.34 -8.53,3.17 -14,0.99 -12.8,-5.12 -36.65,-17.16 -44.56,-28.15 -3.54,-4.93 -9.19,-16.99 -12.19,-22.99 -1.58,-3.16 -3.89,-8.42 -6.46,-10.69 -7.04,-6.22 -13.27,3.75 -22.79,-1.23 -7.1,-3.7 -12.86,-11.76 -17.63,-18.08 -11.95,-15.87 -21.27,-27.32 -21.37,-48 -0.03,-5.64 0.62,-12.32 -4.22,-16.35 -4.02,-3.35 -9.08,-2.38 -12.93,-6.99 -3.51,-4.19 -7.83,-18 -9.42,-23.66 -2.76,-9.77 -6.47,-29.04 -6.43,-39 0.05,-10.53 5.06,-20.42 9.01,-30 1.5,-3.63 4.66,-10.21 4.7,-14 0.07,-6.94 -6.96,-9.04 -10.58,-12.38 -3.59,-3.31 -4.3,-6.92 -4.04,-11.62 0.45,-8.02 4.6,-26.97 6.91,-35 1.37,-4.77 2.4,-9.95 5.41,-14 0,0 19.59,-20 19.59,-20 2.33,-2.33 7.55,-7.19 8.78,-10 2.27,-5.17 -3.31,-9.67 -5.34,-14 -2.24,-4.77 -0.84,-8.55 1.37,-13 4.54,-9.16 11.15,-16.93 17.31,-25 4.8,-6.29 10.28,-13.93 16.88,-18.4 0,0 26.61,-12.24 26.61,-12.24 6.58,-6.08 -0.02,-12.68 6.87,-19.9 3.07,-3.21 12.45,-9.35 16.52,-11.88 11.31,-7.06 33.74,-22.24 47,-21.26 0,0 14,0.77 14,0.77 0,0 10,0.91 10,0.91 3.46,0.04 9.9,0.61 12.61,-1.6 4.75,-3.87 3.19,-12.76 10.48,-17.31 5.82,-3.64 23.45,-4.6 30.91,-5.88 z m -12.94,15.39 c -5.28,3.24 -5.22,8.74 -0.91,12.94 0,0 21.85,16.86 21.85,16.86 0,0 13,10.98 13,10.98 4.77,3.86 9.61,7.06 16,4.92 2.47,-0.83 4.89,-2.65 7,-4.16 5.63,-4.03 10.61,-8.61 6.83,-16.14 -1.57,-3.12 -5.05,-6.02 -7.83,-8.08 -10.57,-7.81 -22.56,-11.35 -35,-14.92 -6.72,-1.93 -13.98,-3.92 -20.94,-2.4 z m 94.94,7.32 c -10.64,1.74 -3.32,11.18 -1.06,17.08 1.1,2.87 2.34,7.48 4.05,9.87 1.51,2.11 3.39,3.39 6.01,3.61 5.93,0.47 14.63,-4.69 12.16,-11.48 -2.6,-7.13 -13.66,-17.72 -21.16,-19.08 z m 41.06,14.69 c -6.05,3.71 -2.56,9.63 -1.19,15.39 1.88,7.9 0.26,17.58 12.13,15.68 1.44,-0.24 3.61,-0.85 4.96,-1.39 6.17,-2.51 5.41,-7 3.16,-12.29 -3.08,-7.26 -10.05,-18.85 -19.06,-17.39 z m -211,5.99 c -3.89,2.38 -5.51,6.17 -1.75,9.77 0,0 17.69,10.08 17.69,10.08 2.15,1.05 4.5,1.75 6.9,1.1 5.42,-1.45 9.73,-13.49 4.79,-17.85 -4.73,-4.17 -21.61,-4.42 -27.63,-3.1 z m 250.17,16 c -5.2,3.75 -2.45,8.96 -2.3,14.4 0.15,3.85 -1.23,8.75 0,11.98 2.43,6.61 11.69,6.75 16.92,3.71 4.19,-2.44 3.3,-7.8 2.06,-11.69 -2.39,-7.49 -6.96,-20.29 -16.68,-18.4 z m -279.23,5.69 c 0,0 -7,1.23 -7,1.23 -4.68,1.25 -10.92,5.97 -5.57,10.76 1.67,1.48 5.38,2.38 7.57,3.01 3.65,1.06 15.29,5.25 17.98,5.02 7.34,-0.62 9.96,-13.5 5.59,-17.88 -3.48,-3.48 -13.85,-2.59 -18.57,-2.14 z m 342,138.71 c -1.89,-0.07 -3.95,0.05 -5.61,-1.02 -2.61,-1.69 -8.18,-16.26 -9.81,-19.98 -7.85,-17.85 -23.4,-38.78 -36.67,-53 -31.08,-33.31 -80.61,-56.5 -125.91,-60.96 0,0 -8,0 -8,0 0,0 -11,-1.04 -11,-1.04 0,0 -4,0 -4,0 0,0 -10,0.91 -10,0.91 -38.6,2.65 -72.08,13.97 -104,36.07 -9.99,6.91 -22.74,17.08 -30.83,26.02 -13.65,15.08 -27.34,33.45 -35.86,52 -1.84,3.99 -6.75,18.08 -9.7,19.98 -1.48,0.95 -2.96,0.88 -4.61,1.02 5.97,-12.88 -2.75,-35.71 -20,-26.86 -12.54,6.43 -30.49,29.26 -37.11,41.86 -2.65,5.04 -4.41,11.16 1.24,14.99 1.72,1.17 3.79,1.78 5.87,1.52 3.41,-0.44 8.74,-4.64 12,-6.51 0,0 0,54.11 0,54.11 -2.05,-0.45 -2.88,-0.86 -4.96,0 -6.27,3.01 -13.14,19.08 -13.7,25.89 -0.4,4.81 2.57,8.61 7.66,7.53 4.19,-0.89 7.45,-5.86 10.79,-8.53 0,0 0,19 0,19 -1.26,4.51 -7.54,13.9 -6.75,27 0.48,7.78 6.69,9.2 10.58,6.26 2.45,-1.86 5.97,-8.38 7.38,-11.26 7.04,3.61 10.99,4.9 19,5 0,0 11,0 11,0 2.3,0 5.74,-0.21 7.73,1.02 2.19,1.36 3.41,4.72 4.53,6.98 0,0 8.19,15 8.19,15 11.6,19.46 27.17,37.13 44.55,51.57 32.04,26.61 72.57,42.49 114,45.52 0,0 10,0.91 10,0.91 25.59,0.3 50.81,-3.95 75,-12.34 33.51,-11.64 62.72,-33.04 85.84,-59.66 9.51,-10.94 17.3,-23.37 24.3,-36 5.47,-9.87 4.19,-12.84 12.86,-13 0,0 20,0 20,0 7.18,0.12 8.55,2.38 14,1.89 7.1,-0.64 21.66,-12.31 21.28,-19.88 -0.21,-4.21 -3.84,-5.78 -5.27,-8.33 -1.26,-2.24 -1.05,-6.12 -1.01,-8.68 0.2,-11.06 11.52,-14.78 13.6,-26 1.86,-10.04 -7.05,-9.9 -13.6,-6 0,-3.13 -0.33,-12.41 0.58,-14.83 1.06,-2.78 9.6,-11.27 11.9,-22.17 2.11,-9.94 -3.74,-13.68 -12.48,-9 0,-7.09 0.54,-13.21 -2.12,-20 -2.42,-6.18 -6.14,-8.2 -6.82,-12 -0.38,-2.07 1.45,-9.14 1.77,-12 1.31,-11.67 1.32,-21.35 -0.58,-33 -0.68,-4.12 -1.46,-9.57 -4.64,-12.57 -3.85,-3.62 -9.44,-2.8 -12.2,1.68 0,0 -7.83,22.89 -7.83,22.89 -3.1,8.21 -9.86,20.1 -10.58,28 z m -373,0 c 6,-21.2 25.6,-47.6 41,-63 49.78,-49.78 119.42,-67.7 187,-48.42 21.73,6.2 43,16.33 61,30.07 15.42,11.78 27.15,23.55 38.42,39.35 7.71,10.8 19.26,29.63 23.58,42 0,0 -23,0 -23,0 -4.15,-0.03 -5.39,0.47 -8,-3 -3.08,1.67 -4.47,2.87 -8,2 0,0 4.56,-5.02 4.56,-5.02 0,0 -2.98,-7.98 -2.98,-7.98 0,0 -11.58,-16 -11.58,-16 0,0 -20,20 -20,20 -4.2,4.2 -7.17,8.29 -13,10 0,0 32,-33 32,-33 0,0 -14,-13.83 -14,-13.83 -1.69,-1.51 -4.63,-4.19 -7,-4.25 -4.01,-0.1 -13.02,10.1 -16,13.08 0,0 -26,26 -26,26 -4.49,4.49 -8.74,10.16 -15,12 0,0 40,-40 40,-40 2.74,-2.74 12.5,-11.23 12.12,-14.96 -0.24,-2.41 -3.33,-4.55 -5.12,-5.88 0,0 -17,-11.16 -17,-11.16 -1.94,4.3 -8.02,12.53 -11,17 0,0 -21.33,32 -21.33,32 -4.6,6.9 -11.33,14.79 -12.67,23 0,0 -5,0 -5,0 1.41,-2.55 3.2,-5.3 4.16,-8 0,0 3.24,-16 3.24,-16 0,0 7,-38 7,-38 0.8,-4 4.36,-18.77 2.56,-21.7 -1.47,-2.4 -5.41,-3.03 -7.96,-3.67 0,0 -20,-3.63 -20,-3.63 0,0 0,91 0,91 0,0 -2,0 -2,0 0,0 0,-91 0,-91 0,0 -16,-1 -16,-1 0,0 -14.02,1 -14.02,1 0,0 0,16 0,16 0,0 -0.98,13 -0.98,13 0,0 0,62 0,62 0,0 -2,0 -2,0 0,0 0,-37 0,-37 0,0 1,-17 1,-17 0,0 -1,-37 -1,-37 0,0 -13,2.4 -13,2.4 0,0 -16,3.6 -16,3.6 0,0 10.6,53 10.6,53 0,0 5.06,24 5.06,24 0,0 4.34,8 4.34,8 0,0 -5,0 -5,0 -3.26,-10.91 -6.29,-12.89 -12.5,-22 0,0 -33.5,-49 -33.5,-49 -8.49,4.09 -18.07,10.65 -25,17 0,0 27,26 27,26 0,0 27,28 27,28 -6.52,-1.92 -11.29,-8.29 -16,-13 0,0 -26,-26 -26,-26 -2.08,-2.08 -10.07,-10.41 -12,-11.37 -2.61,-1.31 -3.98,-0.19 -6,1.48 -3.39,2.81 -15.12,13.49 -14.18,17.89 0.63,2.91 6,7.81 8.18,10 5.7,5.71 15.62,14.88 20,21 -8.46,-2.48 -16.75,-14.66 -23.01,-21 -2.18,-2.2 -6.42,-7.15 -9.9,-5.89 -2.81,1.01 -8.25,10.06 -10.04,12.89 -2.27,3.59 -3.76,5.9 -5.05,10 0,0 6,4 6,4 0,0 -6,-0.8 -6,-0.8 0,0 -10,0.8 -10,0.8 0,0 -22,0 -22,0 z m 347.05,-116.46 c -6.23,2.5 -4.63,7.74 -5.67,13.46 -0.98,5.48 -5.34,15.04 1.73,18.11 1.5,0.65 4.21,0.94 5.89,1.26 1.59,0.1 3.4,0.45 4.98,0 6.07,-1.17 6.03,-6.51 5.27,-11.37 -1.21,-7.67 -2.29,-21.2 -12.2,-21.46 z m -341.05,4.75 c -5.25,0.86 -14.49,3.27 -18.98,5.93 -2.64,1.57 -5.44,4.28 -4.36,7.67 0.78,2.46 3.03,3.43 5.34,3.89 0,0 23,2.79 23,2.79 8.95,-1.23 7.78,-14.06 5.26,-17.29 -2.54,-3.26 -6.55,-3.26 -10.26,-2.99 z m 120,27.71 c -8.73,1.99 -19.06,6.82 -27,11 4.6,10.63 16.96,26.82 23.98,37 4.14,6.01 13.38,20.7 18.02,25 0,0 -15,-73 -15,-73 z m 125,11 c -8.2,-4.67 -17.78,-8.9 -27,-11 0,0 -10.2,51 -10.2,51 -0.96,4.98 -4.19,17.81 -2.8,22 0,0 40,-62 40,-62 z m -272,-5.67 c -6.18,1.37 -16.37,5.54 -20.89,9.88 -3.87,3.72 -4.9,8.93 0.93,11.45 2.95,1.27 11.95,-0.61 15.96,-0.66 3.82,-0.04 10.47,0.66 13.15,-2.51 2.7,-3.21 1.21,-14.04 -1.8,-16.75 -2.15,-1.94 -4.72,-1.63 -7.35,-1.41 z m 166,76.67 c 0,0 -1,0 -1,0 0,0 1,1 1,1 0,0 0,-1 0,-1 z m -184,9.53 c 0,0 39,-0.53 39,-0.53 0,0 75,0 75,0 0,0 231,0 231,0 0,0 80,0 80,0 15.92,0.02 22.98,7.08 23,23 0,0 0,90 0,90 -0.02,15.92 -7.08,22.98 -23,23 0,0 -338,0 -338,0 0,0 -79,0 -79,0 -15.92,-0.02 -22.98,-7.08 -23,-23 0,0 0,-92 0,-92 0.13,-10.68 4.56,-17.35 15,-20.47 z m -96,39.47 c -12.4,-2.12 -11.22,11.33 -11.86,14 -0.45,1.87 -2.23,5.1 -3.14,7 -3.86,-3.94 -11.28,-9.09 -16,-12.28 -2,-1.35 -5.13,-3.75 -7.55,-1.99 -3.24,2.36 -0.5,5.59 1.61,7.37 4.11,3.48 12.82,10.18 17.94,10.9 -2.09,3.73 -10.53,14.74 -10.29,17.96 0.24,3.3 3.71,5.57 7.2,3.4 2.61,-1.63 9.21,-11.96 12.09,-15.36 4.89,5.48 9.52,10.82 17,12 0,0 2,-4 2,-4 -4.56,-5.07 -10.64,-8.53 -17,-11 0,0 6.18,-8.02 6.18,-8.02 0,0 8.08,-5.09 8.08,-5.09 0,0 1.74,-9.89 1.74,-9.89 -1.93,1.03 -5.55,4.08 -7.02,4.24 -6.32,0.72 -2.19,-6.99 -0.98,-9.24 z m 632,21 c -0.91,-1.9 -2.69,-5.13 -3.14,-7 -0.51,-2.13 0.76,-16.24 -11.86,-14 1.18,2.19 5.35,10.19 -0.98,9.38 -1.37,-0.17 -5.06,-3.33 -7.02,-4.38 0,0 1.74,9.94 1.74,9.94 0,0 8.94,5.65 8.94,5.65 0,0 5.32,7.41 5.32,7.41 0,0 -7,3.72 -7,3.72 -6.23,3.24 -5.68,1.56 -10,8.28 1.42,0.93 2.18,1.76 4,2.08 6.69,1.15 10.15,-9.92 15.82,-8.55 3.86,0.93 7.29,11.22 12.22,13.39 3.9,1.72 7.09,-1.96 6.01,-5.92 0,0 -10.05,-16 -10.05,-16 5.13,-0.54 13.82,-7.42 17.94,-10.9 2.1,-1.78 4.86,-5.01 1.61,-7.37 -2.47,-1.8 -5.55,0.75 -7.55,2.13 -4.72,3.27 -12.15,8.22 -16,12.14 z m -468,-2 c -0.33,-13.22 -9.57,-19.29 -22,-18.99 -4.48,0.11 -8.28,0.97 -11.98,3.64 -7.04,5.06 -8.01,11.36 -8.02,19.35 0,0 0,14 0,14 0.01,4.91 -0.04,8.51 2.41,13 8.01,14.65 32.28,13.27 38.89,-2 1.35,-3.42 3.24,-16.5 0,-18.98 -1.24,-1.06 -3.68,-0.99 -5.3,-1.02 0,0 -8,0 -8,0 -1.72,0 -5.2,-0.13 -6.7,0.6 -2.53,1.24 -2.54,4.38 0,5.53 2.98,1.65 9.57,0.76 12.7,0 0.25,3.71 0.35,8.35 -1.45,11.86 -4.35,8.46 -13.87,9.91 -20.33,2.9 -4.2,-4.56 -4.21,-10.08 -4.22,-15.89 -0.01,-8.3 -1.23,-17.76 6.04,-23.58 1.91,-1.53 4.49,-2.79 6.96,-2.91 8.7,-0.41 12.02,9.8 14.49,11.47 1.74,1.18 4.48,0.99 6.51,1.02 z m 30,-12 c 0,0 23,0 23,0 2.66,-0.05 8.05,-0.42 6.34,-4.7 -1.11,-2.81 -5.88,-2.3 -8.34,-2.3 0,0 -22,0 -22,0 -1.95,0.04 -4.63,-0.1 -5.98,1.6 -1.25,1.59 -1.02,5.41 -1.02,7.4 0,0 0,44 0,44 0.14,7.49 2.26,6.99 9,7 0,0 20,0 20,0 1.99,0 5.81,0.23 7.4,-1.02 1.56,-1.24 1.45,-3.21 1.6,-4.98 0,0 -30,-1 -30,-1 0,0 0,-20 0,-20 0,0 26,0 26,0 0,0 -1.57,-5.83 -1.57,-5.83 0,0 -8.43,-1.17 -8.43,-1.17 0,0 -16,0 -16,0 0,0 0,-19 0,-19 z m 92,52 c 0,0 -16.05,-45 -16.05,-45 -1.42,-3.89 -3.6,-12.56 -8.04,-13.51 -5.84,-1.26 -7.55,8.42 -9.1,12.51 0,0 -10.23,28 -10.23,28 -2.44,6.5 -5.24,11.99 -5.58,19 1.68,-0.02 4.25,0.08 5.78,-0.6 3.73,-1.65 5.64,-9.67 6.22,-13.4 0,0 20,0 20,0 -0.88,-7.38 -2.87,-6 -17,-6 0,0 9,-26 9,-26 0,0 12.33,34 12.33,34 2.61,7.73 2.89,13.74 12.67,11 z m 47,-26 c 3.81,-1.54 5.96,-2.65 8.58,-6.02 6.5,-8.32 3.28,-21.45 -6.58,-25.5 -5.37,-2.2 -18.73,-1.59 -25,-1.48 -7.49,0.14 -6.99,2.26 -7,9 0,0 0,42 0,42 0,1.98 -0.23,5.82 1.02,7.4 0.74,0.93 1.82,1.31 2.98,1.31 4,0 3.94,-3.76 4,-6.71 0,0 0,-46 0,-46 3.91,0 16.02,-0.43 18.98,0.74 6.2,2.44 8.21,11.02 3.59,15.87 -2.36,2.48 -5.3,3.14 -8.57,3.35 -2.05,0.13 -5.58,-0.26 -6.93,1.63 -1.34,1.88 -0.98,5.72 4.93,4.41 0,0 9.24,18 9.24,18 0,0 5.15,7.98 5.15,7.98 0,0 7.61,1.02 7.61,1.02 -0.81,-7.65 -8.48,-18.84 -12,-27 z m 64.31,-32.38 c -0.75,0.62 -0.96,0.16 -1.71,1.69 -1,2.04 -0.6,15.5 -0.6,18.69 0,13.77 -3.2,33.39 14,38.36 2.64,0.77 6.22,0.67 9,0.64 2.43,-0.03 4.64,-0.06 7,-0.8 2.81,-0.88 4.84,-2.29 6.96,-4.31 7.69,-7.31 6.04,-15.29 6.04,-24.89 0,0 0,-21 0,-21 0,-1.98 0.23,-5.82 -1.02,-7.4 -0.74,-0.93 -1.82,-1.31 -2.98,-1.31 -4.37,0 -3.98,4.63 -4,7.71 -0.05,6.86 0.65,30.03 -0.79,35 -1.78,6.17 -7.4,11.47 -14.21,10.38 -10.67,-1.72 -11.99,-12.69 -12,-21.38 0,0 0,-25 0,-25 -0.09,-4.62 -0.31,-7.25 -5.69,-6.38 z m 71.69,5.38 c 6.71,1.91 13.9,0.15 18,1.74 6.77,2.62 9.26,11.52 4.57,17.13 -4.46,5.33 -10.54,3.58 -13.42,4.44 -2.02,0.6 -3.35,2.25 -2.49,4.39 1.37,3.46 9.47,2.23 12.34,1.68 10.05,-1.93 16.29,-10.08 14.53,-20.38 -2.05,-12.03 -10.63,-14.95 -21.53,-15 -3.56,-0.02 -16.99,-0.92 -18.98,1.6 -1.25,1.59 -1.02,5.41 -1.02,7.4 0,0 0,42 0,42 0,1.98 -0.23,5.82 1.02,7.4 0.74,0.93 1.82,1.31 2.98,1.31 4.37,0 3.98,-4.63 4,-7.71 0,0 0,-46 0,-46 z m -496,36 c 0,0 4,-1 4,-1 0,0 -1,4 -1,4 0,0 -2,0 -2,0 0,0 -1,-3 -1,-3 z m 667,-1 c 0,0 4,1 4,1 0,0 -1,3 -1,3 0,0 -2,0 -2,0 0,0 -1,-4 -1,-4 z m -501,62 c 0,0 23,0 23,0 1.97,0.01 4.68,-0.17 6.37,0.99 0,0 11.64,17 11.64,17 1.47,1.81 3.37,4.5 6.03,4.1 2.47,-0.38 6.18,-4.34 7.96,-6.09 5.14,-5.08 11.63,-12.99 18,-16 -4.48,6.26 -11.5,12.37 -16.99,18 -1.93,1.98 -6.26,6.04 -6.05,9 0.2,2.91 5.93,7.89 8.04,10 2.26,2.26 7.87,9.28 11.28,8.21 2.86,-0.9 11.22,-9.71 13.72,-12.21 7.79,-7.79 27.3,-28.89 36,-33 -10.65,14.88 -39.79,35.94 -48,50 0,0 24,15 24,15 0,0 30.33,-46 30.33,-46 3.59,-5.38 9.35,-15.94 14.67,-19 0,0 -7.58,42 -7.58,42 0,0 -4.17,23 -4.17,23 0,0 -2.25,13 -2.25,13 0,0 29,5 29,5 0,0 0,-83 0,-83 0,0 2,0 2,0 0,0 0,63 0,63 0,4.27 -1.23,17.62 2.31,19.98 1.85,1.23 5.5,1.02 7.69,1.02 4.16,0.01 16.64,1.2 18.98,-2.31 1.23,-1.85 1.02,-5.5 1.02,-7.69 0,0 0,-38 0,-38 0,0 1,-15 1,-15 0,0 0,-21 0,-21 0,0 2,0 2,0 0,0 -1,16 -1,16 0,0 0,67 0,67 8.76,-0.4 20.63,-3.26 29,-6 0,0 -4,-19 -4,-19 0,0 -12,-58 -12,-58 5.36,3 11.34,13.66 15.02,19 0,0 21,30 21,30 3.32,4.78 7.63,9.77 9.98,15 8.29,-3.04 18.3,-10.24 25,-16 0,0 -26,-26 -26,-26 0,0 -21,-22 -21,-22 5.6,2.65 9.67,7.67 14,12 0,0 23.96,23.58 23.96,23.58 2.25,2.03 6.82,7.15 9.05,8.24 5.13,2.51 13.74,-8.21 17.07,-11.83 1.69,-1.84 4.46,-4.2 3.72,-6.99 -0.56,-2.14 -5.12,-6.31 -6.8,-8 -5.17,-5.17 -11.83,-11.18 -16,-17 8.01,2.35 14.47,12.13 20.3,18 0,0 6.7,6 6.7,6 0,0 9.58,-14 9.58,-14 0,0 6.63,-8.98 6.63,-8.98 0,0 6.79,-1.02 6.79,-1.02 0,0 22,0 22,0 -5.74,20.14 -28.65,47.35 -44,61.17 -61.48,55.33 -150.02,64.13 -222,23.97 -16.03,-8.95 -28.1,-19.22 -41,-32.14 -14.25,-14.27 -28.47,-34.2 -36,-53 z m 137,6 c 0,0 -16.33,23 -16.33,23 0,0 -23.67,37 -23.67,37 7.2,4.1 18.96,9.16 27,11 0,0 8.42,-45 8.42,-45 0,0 4.58,-26 4.58,-26 z m 69,0 c 0,0 -1,0 -1,0 0,0 1,1 1,1 0,0 0,-1 0,-1 z m 1,1 c -1.5,4.52 1.05,12.23 2,17 0,0 7.2,36 7.2,36 0.68,3.38 1.85,14.06 5.22,15.33 2.06,0.78 5.61,-0.78 7.58,-1.52 7.51,-2.82 9.91,-3.77 17,-7.81 -2.09,-7.17 -7.2,-12.89 -11.33,-19 0,0 -27.67,-40 -27.67,-40 z m -253.96,7.56 c -2.08,1.25 -2.57,1.28 -3.95,3.5 -2.84,4.55 -3.66,18.58 -2.62,23.94 0.88,4.55 3.92,9.92 9.49,8.17 4.17,-1.31 6,-7.52 7.8,-11.17 3.27,-6.63 11.5,-18.23 1.22,-22.89 -1.22,-0.56 -3.65,-1.31 -4.98,-1.55 -2.94,-0.67 -4.08,-0.56 -6.96,0 z m 441.96,3.95 c 0,0 -13,2.32 -13,2.32 -3.92,0.4 -8.54,-0.26 -11.69,2.68 -4.69,4.38 -1.08,19.38 7.69,19.08 6.12,-0.2 17.97,-6.92 21.69,-11.63 4.33,-5.49 2.43,-11.45 -4.69,-12.45 z m -508,42.49 c 12.22,2.27 8.28,-9.52 5.3,-16 -1.46,-3.18 -2.14,-6.19 -6.34,-5.32 0,0 -8.96,3.52 -8.96,3.52 -4.55,1.85 -7.71,2.29 -7,7.8 0,0 18,-8 18,-8 1.05,2.63 4.21,9.21 3.3,11.8 -2.3,6.48 -7.62,-5.37 -8.3,-6.8 0,0 -3,1 -3,1 0.88,2.53 4.75,10.21 1.61,11.96 -0.8,0.46 -1.62,0.36 -2.42,0 -2.36,-1.11 -3.78,-5.54 -7.19,-8.96 -0.98,9.58 10.45,21.55 15,9 z m 566,-18 c -8.22,0.08 -12.24,14.36 -6.61,17.81 6.9,4.23 10.96,-8.17 14.65,-9.9 0.79,-0.36 1.56,-0.51 2.33,0 2.72,1.83 -0.52,7.3 -1.76,9.09 -2.51,3.6 -3.38,3.4 -3.61,8 5.81,-3.19 9.54,-8.2 9.89,-15 0.16,-3.06 -0.37,-6.8 -4,-7.46 -6.64,-1.22 -9.02,8.72 -12.94,10.55 -5.81,2.71 -2.3,-6.31 -1.19,-8.09 0,0 3.24,-5 3.24,-5 z m -475,8.51 c -2.32,0.55 -3.66,0.71 -5.11,2.77 -3.67,4.5 -1.51,20.37 0,25.72 1.47,4.24 3.79,8.88 9.1,8.27 6.32,-0.74 7.34,-11.22 8.64,-16.27 0.83,-3.24 3.37,-10.11 3,-13 -0.94,-7.38 -9.9,-7.42 -15.63,-7.49 z m 461,14.49 c 0,0 -2,0 -2,0 0,0 -7.91,15.9 -7.91,15.9 0,0 4.91,5.15 4.91,5.15 0,0 13,7.95 13,7.95 3.9,-5.96 8.03,-12.1 10,-19 -5.39,1.87 -8.15,8.96 -10,14 0,0 -6,-3 -6,-3 0,0 6,-13 6,-13 0,0 -1,-1 -1,-1 0,0 -2,0 -2,0 0,0 -6,12 -6,12 -8.47,-7.77 -0.31,-7.37 1,-19 z m -535,3 c 0,0 -20,10 -20,10 0,0 1,4 1,4 5.77,-2.12 17.16,-7.63 20,-13 0,0 -1,-1 -1,-1 z m 123,10.3 c -3.79,0.74 -7.68,1.59 -10.11,4.91 -6.23,8.5 3.79,29.14 8.65,36.79 0,0 5.6,8 5.6,8 0,0 6.67,9 6.67,9 3.88,4.84 10.19,12.65 17.19,11.62 13.73,-2.04 4.79,-18.97 2.34,-26.62 0,0 -6.34,-28 -6.34,-28 -0.97,-4.72 -1.94,-10.28 -6.11,-13.28 -4.49,-3.23 -12.6,-2.95 -17.89,-2.42 z m 269,4.09 c -2.36,0.77 -3.76,1.13 -5.58,3 -4.08,4.17 -10.25,21.14 -2.21,28.18 5.85,5.13 18.61,3.13 25.79,1.99 10.29,-1.62 29.15,-8.22 38,-13.58 5.16,-3.12 9.87,-8.65 5.11,-14.59 -2.55,-3.18 -6.38,-3.34 -10.11,-3.39 0,0 -25,0 -25,0 -8.74,-0.01 -17.32,-2.79 -26,-1.61 z m -378,19.61 c 0.68,-2.79 1.24,-5.1 0.6,-8 -0.47,-2.2 -1.53,-4.19 -2.99,-5.9 -9.45,-11.04 -26.01,1.88 -18.46,13.88 1.22,1.95 2.84,3.77 4.89,4.85 2.46,1.29 5.26,1.14 7.96,1.17 0,0 -2,-4 -2,-4 -1.99,-0.03 -3.04,0.15 -4.9,-0.94 -12.52,-7.32 5.7,-22.67 11.36,-10.04 0,0 1.54,8.98 1.54,8.98 0,0 2,0 2,0 z m 522,2 c 0,0 -19,-12 -19,-12 0,0 -1,4 -1,4 5.95,3.42 12.92,11.03 20,10 0,0 0,-2 0,-2 z m -513,0 c 0,0 -2,0 -2,0 0,0 -5.08,12.96 -5.08,12.96 0,0 -6.92,8.04 -6.92,8.04 0,0 2,2 2,2 0,0 1,0 1,0 7.8,-6.67 12.09,-6.54 22,-7 -3.03,-4.53 -9.33,-3.14 -14,-2 0,0 4,-13 4,-13 0,0 -1,-1 -1,-1 z m 493.24,12 c 0.13,-1.72 0.6,-3.18 0,-4.98 -2.31,-12.58 -19.52,3.17 -17.91,8.89 0.63,2.23 6.71,7.02 8.67,8.67 2.82,2.36 4.64,3.86 8,5.42 0,0 1,-4 1,-4 0,0 -15,-11 -15,-11 1.68,-1.94 5.72,-7 7.71,-8.09 2.63,-1.43 3.99,0.63 3.61,3.14 0,0 -2.32,6.95 -2.32,6.95 0,0 3,-2 3,-2 4.75,1.35 11.96,2.65 14,-3 0,0 -10.76,0 -10.76,0 z m -167.24,9.5 c -2.04,0.58 -2.9,0.65 -4.61,2.15 -4.12,3.6 -7.48,13.51 -3.08,17.93 3.87,3.89 14.34,5.35 19.69,5.42 0,0 4,0 4,0 1.79,-0.03 4.16,0 5.81,-0.74 4,-1.77 5.02,-6.66 2.59,-10.16 -2.07,-2.98 -6.33,-4.71 -9.4,-6.55 -4.9,-2.93 -9.13,-7.81 -15,-8.05 z m -301,18.5 c 0.79,-3.3 1.34,-5.69 0,-9 -3.39,-8.34 -11.29,-9.82 -17.91,-4.06 -1.6,1.39 -3.4,3.17 -4.23,5.15 -3.42,8.14 9.35,21 15.14,11.91 -4.54,-0.12 -11.05,-1.29 -11.68,-7 -0.53,-4.83 6.89,-11.18 11.57,-8.81 5.64,2.86 2.38,6.98 7.11,11.81 z m 450,4 c 4.68,-0.05 5.84,-3.92 4.4,-8 -1.12,-3.16 -5.37,-7.29 -8.4,-8.67 -2.85,-1.31 -5.35,-0.91 -7.98,0.68 -3.8,2.28 -7.6,7.33 -6.47,11.99 1.97,8.1 13.04,15.26 18.45,6.16 -2.04,0.1 -5.06,0.74 -7,0 -1.89,-0.42 -3.48,-1.77 -4.77,-3.22 -6.9,-7.7 1.85,-16.72 9.66,-8.83 1.06,1.07 2.21,2.46 2.73,3.89 0.81,2.27 0.05,3.88 -0.62,6 z m -277,-11.45 c -2.54,0.4 -3.65,0.62 -6,1.85 -14.22,7.45 -6.7,16.67 2,24.43 3.75,3.34 8.68,7.31 14,7.02 4.55,-0.25 7.13,-3.3 6.35,-7.85 -0.48,-2.81 -2.87,-6.42 -4.23,-9 -3.19,-6.06 -4.54,-15.15 -12.12,-16.45 z m 85,0.97 c -6.9,2.52 -13.25,12.67 -7.57,19.27 3.93,4.57 20.52,10.08 26.55,8.98 5.46,-0.99 7.39,-6.2 4.42,-10.73 -1.47,-2.24 -5.29,-5.16 -7.4,-7.13 -5.03,-4.68 -8.59,-10.5 -16,-10.39 z m -45,4.04 c -2.52,1.15 -3.66,1.69 -5.67,3.74 -10.82,11.07 2.36,19.29 11.67,23.94 3.47,1.73 9.04,4.58 12.96,3.15 4.38,-1.6 5.62,-6.26 3.6,-10.22 0,0 -7.07,-9.17 -7.07,-9.17 -4.73,-6.45 -5.95,-13.07 -15.49,-11.44 z m -200,4.44 c -6.36,3.01 -14.05,11.16 -16,18 0,0 14,11 14,11 -0.06,-5.69 -6.22,-9.25 -10,-13 4.26,-3.32 10.72,-10.17 13,-15 0,0 -1,-1 -1,-1 z m 410,4 c -4.5,0.85 -9.34,2.85 -11.69,7.09 -1.84,3.35 -1.29,7.91 2.75,9.27 5.11,1.72 10.11,-4.92 13.67,-4.35 2.71,0.44 1.77,3.41 0.73,4.95 -2.27,3.39 -5.88,4.61 -9.46,6.04 0,0 0,2 0,2 0,0 1,1 1,1 2.8,-0.7 4.54,-1.2 7,-2.85 1.64,-1.11 3.37,-2.61 4.57,-4.19 3.38,-4.42 3.24,-10.71 -3.57,-10.75 -4,-0.02 -6.47,2.52 -8.99,3.46 -1.5,0.56 -3.88,1.05 -4.56,-0.99 -1.28,-3.88 5.56,-5.18 8.55,-10.68 z m -377,24 c -2.28,-2.9 -10.16,-10.18 -13.99,-9.89 -3.44,0.26 -9.47,8.96 -11.31,11.89 -0.93,1.49 -1.95,2.98 -1.38,4.83 1.19,3.84 10.88,9.23 14.68,10.17 -1.69,-5.03 -7.32,-8.02 -12,-10 5.94,-6.74 5.71,-4.22 15,1 -0.06,-6.19 -4.23,-4.98 -5.97,-9.16 -0.95,-2.29 0.58,-4.21 3.02,-3.83 4.41,0.7 5.24,5.08 11.95,4.99 z m 356,-7 c -4.53,0.42 -8.37,1.4 -11.35,5.19 -2.92,3.71 -3.04,9.09 2.39,10.34 4.16,0.96 7.83,-2.24 10.94,-2.95 3.73,-0.87 4.95,1.36 2.65,4.33 -3.64,4.7 -7.37,2.88 -10.63,8.09 6.22,-0.16 10.7,-1.59 14.48,-7.02 2.2,-3.17 2.55,-7.53 -1.61,-9.23 -3.77,-1.53 -7.41,1.05 -10.78,2.34 -1.54,0.6 -4.1,1.49 -5.01,-0.6 -2.16,-4.97 6.88,-5.23 8.92,-10.49 z m -22,12 c 0,0 -15,8 -15,8 0.8,3.97 6.77,17.14997 10.33,18.86997 4.02,1.96 14.56,-5.52 16.67,-8.87 -5.51,0.04 -10.63,3.86 -15,7 0,0 -3,-7 -3,-7 4.33,-1.93 8.36,-3.27 10,-7.99997 0,0 -12,5.99997 -12,5.99997 -2.37,-6.69997 -3.17,-5.69997 9,-12.99997 0,0 -1,-3 -1,-3 z m -302,15.99997 c -6.09,-11.08997 -16.69,-10.25997 -18.04,-3.95997 -1.09,5.12997 6.73,8.89997 8.13,11.98997 1.33,2.95 -1.83,4.72 -6.09,2.23 0,0 -3,-2.22 -3,-2.22 -2.67,-1.97 -2.86,-2.12 -6,-3.04 2.19,5.55 5.95,9.06 12,10.14 3.7,0.67 7.71,-0.83 7.71,-5.16 0,-4.44 -4.58,-7.05 -6.51,-9.26 -0.93,-1.07 -2.25,-2.62 -1.29,-4.10997 2.44,-3.76 7.83,2.52997 13.09,3.38997 z m 281,4 c -5.87,-6.44997 -14.65,-3.82 -17.26,3.02 -1.39,3.64 0.19,8.81 2.25,11.94 6.38,9.66 21.46,2.94 19.01,-7.96 -4.44,3.27 -3.68,7.49 -9,8.51 -6.17,1.18 -10.64,-8.55 -8.06,-12.39 3.12,-4.64 8.51,-2.51 13.06,-3.12 z m -255,6 c -2.84,-4.37 -11.03,-6.83 -16,-8 -3.68,6.46 -7.67,13.64 -9,21 0,0 17,6 17,6 -2.72,-4.66 -8.19,-5.96 -13,-8 0,0 3,-6 3,-6 0,0 12,4 12,4 -1.73,-4.48 -6.75,-5.52 -11,-7 0,0 3,-6 3,-6 0,0 14,4 14,4 z m 229,4 c -2.75,-1.64 -4.64,-2.93 -8,-2.84 -11.54,0.29 -13.47,13.31 -6.58,20.56 6.15,6.49 18.76,1.32 17.58,-8.72 -4.13,2.95 -4.54,6.66 -9,7.51 -6.64,1.27 -10.46,-9.24 -7.39,-13.23 3.47,-4.52 8.88,-1.24 13.39,-1.28 0,0 0,-2 0,-2 z m -211,14 c 1.4,-0.31 2.49,-0.37 3.77,-1.17 10.35,-6.46 -7.98,-17.12 -13.12,-13.8 -2.22,1.43 -4.44,9.23 -5.46,11.97 -1.47,3.97 -2.01,4.76 -1.19,9 0,0 2,0 2,0 0,0 6,-18 6,-18 2.75,0.43 6.5,1.12 8.67,2.99 2.08,1.8 2.03,4.29 -0.82,5.07 -1.15,0.4 -5.36,0 -6.85,0 0,0 2.64,5.11 2.64,5.11 2.15,4.74 1.25,7.02 6.36,9.83 0,0 -2,-11 -2,-11 z m 15,-9 c -2.12,5.37 0.76,19.62 3,25 5.82,-3 12.95,-14.08 16,-20 0,0 -4,-1 -4,-1 0,0 -10,14 -10,14 -1.03,-5.65 -0.94,-13.89 -5,-18 z m 176,20 c -1.76,-3.73 -11.95,-15.96 -15.42,-18.01 -1.43,-0.84 -2.08,-0.74 -3.58,-0.99 0,0 -5,24 -5,24 0,0 1,1 1,1 3.45,-2.35 3.51,-2.9 4,-7 4.2,-0.36 6.57,-0.26 9,-4 0,0 -8,1 -8,1 0,0 3,-10 3,-10 2.69,5.8 8.15,13.65 15,14 z m -148,-14 c 0,0 -2,0 -2,0 -1.9,5.77 -4.51,17.25 -3,23 0,0 2,0 2,0 1.75,-5.3 4.25,-17.76 3,-23 z m 29,11 c -1.99,-9.12 -12,-9.81 -16.77,-5.57 -2.87,2.54 -3.87,7.86 -3.73,11.57 0.36,9.76 15.78,13.38 20.5,2 -6.11,0.92 -7.38,4.76 -11.94,3.22 -7.52,-2.51 -4.66,-13.67 0,-15.46 4.72,-1.79 6.79,2.57 11.94,4.24 z m 61,1 c 0.83,-0.73 1.59,-1.05 2.31,-2.22 5.07,-8.33 -14.31,-8.73 -10.25,0 0.59,1.26 1.41,1.67 1.94,2.22 0,0 1,-6 1,-6 0,0 5,0 5,0 -3.33,6.41 -12.19,8.83 -10.34,14.96 1.58,5.27 11.39,7.61 15.34,1.24 0,0 -7.94,0 -7.94,0 -4.9,-0.76 -3.54,-5.82 0,-5.76 4.66,0.07 7.25,6.87 16.94,7.56 0,0 -4,-12 -4,-12 0,0 -3,6 -3,6 0,0 -7,-6 -7,-6 z m -33,-6.97 c -2.6,-0.03 -15.16,-0.87 -16.4,0 -2.12,1.56 -1.53,6.58 -1.61,8.97 -0.17,3.12 -1.74,8.98 0,11.49 2.09,2.91 12.75,3.26 15.72,1.92 1.55,-0.71 1.49,-1.21 2.29,-2.41 0,0 -14,0 -14,0 0,0 0,-8 0,-8 4.42,1.25 9.14,2.28 12,-2 0,0 -13,-1 -13,-1 0,0 1,-6 1,-6 4.76,0 11.07,1.37 14,-2.97 z"
     id="Selection-3"
     inkscape:connector-curvature="0"
     style="fill:#999999" />
  <path
     style="fill:#999999;stroke-width:1.56862867"
     d="m 688.91378,1190.1492 c -1.0877,-1.3106 -3.63114,-8.2772 -5.65208,-15.4813 -5.01411,-17.8739 -6.18733,-20.4891 -11.63642,-25.9382 -12.357,-12.357 -38.92988,-10.1111 -48.10037,4.0654 -2.00563,3.1004 -4.7808,11.254 -6.16703,18.119 -3.71514,18.3983 -4.89119,19.6751 -18.1227,19.6751 -12.88517,0 -13.25597,-0.4123 -14.81472,-16.4706 -1.66072,-17.1087 -4.76366,-26.0953 -11.24995,-32.5816 -7.29286,-7.2929 -14.04546,-9.4966 -26.64167,-8.6945 -13.52037,0.8609 -17.06762,3.8031 -26.52843,22.0033 -4.31373,8.2986 -8.81193,16.2063 -9.99599,17.5727 -4.16139,4.8022 -22.44501,1.3825 -24.75205,-4.6296 -0.53814,-1.4023 -0.0731,-9.8882 1.03352,-18.8576 1.80994,-14.6704 1.74267,-17.0129 -0.66998,-23.3303 -6.93218,-18.1517 -33.04246,-27.2088 -47.91298,-16.6201 -2.77813,1.9782 -8.13117,8.4019 -11.89561,14.2748 -3.76445,5.873 -8.24109,11.4255 -9.94809,12.3391 -4.73022,2.5315 -11.39251,1.9815 -16.93528,-1.3982 -8.00198,-4.8791 -8.78642,-7.8021 -5.14653,-19.1772 3.56121,-11.1291 5.60575,-28.6611 4.06041,-34.8182 -1.59082,-6.3383 -10.37376,-15.2389 -19.00258,-19.2571 -14.18463,-6.6055 -19.78377,-4.9977 -36.61961,10.5155 -16.29289,15.0129 -20.93885,15.8123 -32.16049,5.5337 -6.81315,-6.2406 -6.76545,-7.3588 0.86596,-20.3017 10.267,-17.4129 13.27642,-32.2212 8.42866,-41.4746 -3.23107,-6.1675 -11.81182,-13.9096 -18.51484,-16.70534 -10.86164,-4.53025 -18.01886,-3.30282 -31.87929,5.46714 -6.86667,4.3448 -13.99706,8.2846 -15.84532,8.7551 -4.2088,1.0715 -11.89446,-2.7984 -15.00404,-7.5549 -5.36664,-8.20891 -5.01783,-9.62843 5.87333,-23.9022 11.40414,-14.94608 14.84412,-21.74947 14.84412,-29.35787 0,-7.51237 -5.63276,-17.75335 -13.64276,-24.80404 -10.4804,-9.2252 -14.97382,-9.53825 -35.97963,-2.50663 -9.64984,3.23024 -18.81258,5.6291 -20.36163,5.33078 -3.31545,-0.6385 -11.03136,-11.41766 -12.08938,-16.88891 -0.81861,-4.23318 2.11357,-7.57229 15.93583,-18.14747 12.88509,-9.85815 16.72718,-16.49767 16.71872,-28.89158 -0.006,-8.47257 -0.79498,-11.66672 -4.40044,-17.81024 -2.41636,-4.11737 -7.1582,-9.31579 -10.53743,-11.55204 -6.56104,-4.3419 -7.27028,-4.36586 -36.82366,-1.24356 -8.21927,0.86834 -9.78287,0.58892 -12.30602,-2.19913 -4.04228,-4.46667 -7.19239,-14.39416 -5.77944,-18.21372 0.64841,-1.75283 7.10141,-6.58697 14.34,-10.7425 22.42462,-12.8736 27.69991,-20.35117 25.99706,-36.85018 -1.15554,-11.19609 -7.59534,-21.70601 -15.97325,-26.06876 -4.79847,-2.49878 -10.22936,-3.45472 -23.08614,-4.06359 -12.02133,-0.56932 -17.47541,-1.46664 -19.14118,-3.14914 -1.30143,-1.31448 -2.79898,-6.97497 -3.39317,-12.82557 l -1.06361,-10.47266 6.87145,-1.73363 c 27.42018,-6.91798 36.93646,-12.38972 42.37738,-24.36648 3.18676,-7.0148 3.8028,-20.23227 1.25705,-26.97019 -2.0075,-5.31327 -8.63273,-12.5675 -14.01787,-15.34873 -2.15686,-1.11395 -9.08249,-2.88672 -15.39028,-3.93949 -12.67394,-2.11528 -18.8142,-6.1155 -19.30791,-12.57863 -0.60689,-7.94482 0.25984,-12.28975 3.168,-15.88117 2.61463,-3.22893 4.77645,-3.7969 17.64707,-4.63635 20.77709,-1.35515 30.8829,-7.05867 36.55337,-20.63001 4.51999,-10.81784 2.21734,-26.52673 -5.083,-34.67667 -1.4769,-1.64878 -9.9114,-6.45631 -18.74332,-10.68342 -17.73221,-8.48694 -19.16238,-10.35063 -16.24811,-21.17342 3.27754,-12.17185 3.79592,-12.40501 22.6959,-10.20805 20.13624,2.34066 26.60071,1.02466 35.82671,-7.29345 7.98419,-7.1985 12.13561,-16.04395 12.1805,-25.95306 0.0469,-10.35207 -3.87805,-17.81752 -12.41403,-23.6122 -3.93766,-2.6731 -10.24839,-7.85631 -14.02385,-11.51826 -6.00818,-5.82751 -6.74356,-7.26262 -5.89517,-11.50457 1.29474,-6.4737 6.67379,-13.78925 10.903,-14.82817 1.8839,-0.46277 9.37319,0.9473 16.64288,3.13351 21.65642,6.51274 30.66744,5.00405 41.44466,-6.93891 7.09245,-7.85961 10.43582,-15.11904 10.43582,-22.65917 0,-8.39299 -2.41558,-12.99427 -12.30954,-23.44761 -11.07628,-11.7025 -14.35715,-16.40635 -14.35715,-20.58406 0,-3.91922 11.23829,-16.51303 14.73566,-16.51303 1.40198,0 8.36589,3.13236 15.47534,6.9608 17.77123,9.5698 25.88823,11.46123 34.71645,8.0897 8.27378,-3.15978 17.61031,-12.07171 21.51935,-20.5407 5.0333,-10.90473 3.83556,-17.03539 -6.43569,-32.94121 -7.77749,-12.04399 -8.89418,-16.57893 -5.49813,-22.32799 2.70822,-4.58464 11.36004,-11.39752 14.47396,-11.39752 0.95365,0 6.55702,3.95606 12.45196,8.79124 14.45683,11.85789 21.49089,15.3081 31.32385,15.36436 10.04196,0.0575 21.04372,-6.23314 27.85799,-15.92865 6.4565,-9.18648 6.39365,-17.87923 -0.24303,-33.60812 -2.79591,-6.62631 -5.08222,-14.39102 -5.08066,-17.25492 0.003,-4.42014 1.00991,-5.84121 6.66667,-9.40297 12.40859,-7.81303 13.9231,-7.56436 22.41592,3.68048 4.12369,5.45995 9.32526,11.933 11.55907,14.38456 12.78073,14.02669 34.39371,13.77604 48.33993,-0.5606 7.79226,-8.0104 8.92162,-13.32687 6.63785,-31.24733 -1.07554,-8.43969 -1.50877,-17.12496 -0.96271,-19.30059 1.19501,-4.76135 9.34779,-9.03518 17.2355,-9.03518 6.17828,0 8.55672,2.53869 15.7441,16.80485 4.94372,9.81273 12.39253,18.60098 18.39828,21.70668 8.52135,4.40656 27.01023,1.59004 35.40818,-5.39394 7.53776,-6.26863 9.91447,-12.69345 9.92998,-26.84308 0.0188,-17.1336 2.0924,-24.77955 7.25242,-26.74139 5.5664,-2.11634 16.77369,-1.85224 19.81203,0.46686 1.41289,1.07843 3.65677,6.7318 4.98637,12.56304 5.76534,25.28491 16.99256,37.46501 34.53401,37.46501 10.20524,0 17.36558,-2.88793 23.96532,-9.66576 5.36565,-5.51044 6.99399,-9.45331 9.8276,-23.79637 2.08058,-10.53138 6.15919,-16.3364 12.44849,-17.71776 6.06302,-1.33166 16.77813,1.68024 18.10971,5.09044 0.58587,1.50044 1.71983,8.98501 2.51992,16.63239 1.74328,16.66253 5.45999,25.78254 12.78379,31.36868 6.45264,4.92167 20.55942,8.11272 28.94364,6.54725 8.00334,-1.49435 17.43107,-11.48706 22.29051,-23.62631 6.64668,-16.60396 9.03536,-19.58313 15.59259,-19.44714 7.38321,0.15311 16.07391,3.29654 18.13121,6.55803 1.10666,1.75442 0.99444,8.04965 -0.36073,20.23712 l -1.96711,17.69053 4.3873,8.47532 c 5.69216,10.99604 14.77488,17.68543 25.39903,18.70627 14.42781,1.38633 19.94077,-2.01198 33.91231,-20.90431 4.63674,-6.2698 9.86244,-11.85413 11.61266,-12.40963 3.67013,-1.16486 15.51564,3.62493 18.79858,7.60129 2.91052,3.52531 2.56218,9.25971 -1.22349,20.1407 -6.83865,19.65604 -6.18679,29.43493 2.6113,39.17336 9.17491,10.15553 22.9115,15.23192 33.21839,12.27594 2.58264,-0.74069 11.14781,-7.04749 19.03368,-14.01511 7.88589,-6.96761 15.15608,-12.66839 16.15597,-12.66839 4.36519,0 18.18883,11.82154 18.22753,15.58761 0.0141,1.34839 -3.59508,9.55052 -8.01984,18.22695 -10.07281,19.75159 -10.81149,27.75192 -3.63426,39.36081 6.18807,10.00897 17.41178,17.02714 27.19219,17.00323 5.9821,-0.0141 9.3013,-1.38838 19.8697,-8.22387 6.9783,-4.51346 14.9408,-8.65688 17.6944,-9.20759 4.4235,-0.8847 5.7318,-0.23891 11.2337,5.5448 8.8512,9.30452 8.4488,13.23074 -2.6209,25.57042 -4.8664,5.42477 -10.1451,12.68675 -11.7303,16.13774 -5.487,11.94531 -3.0708,24.98298 6.6903,36.1002 10.1857,11.60092 20.2076,13.02194 37.6982,5.34526 14.8354,-6.51127 20.8448,-7.37798 25.0806,-3.61721 4.343,3.85589 9.4286,15.30319 8.2097,18.47945 -0.5249,1.36779 -4.3773,4.99961 -8.5609,8.07069 -10.9129,8.01079 -21.5359,20.40754 -23.7122,27.67166 -3.3335,11.12604 3.9821,29.96868 14.3884,37.06018 5.0373,3.43268 6.4608,3.6508 17.2549,2.64378 6.4706,-0.60365 15.9187,-1.20113 20.9958,-1.3277 8.361,-0.20844 9.5343,0.17468 12.4493,4.06504 2.135,2.84946 3.2518,6.79586 3.318,11.72472 l 0.1,7.42954 -12.4778,6.72074 c -14.4102,7.76147 -20.267,12.85388 -24.7001,21.47617 -4.0561,7.88895 -3.2927,19.40778 1.9928,30.06996 5.5028,11.10073 11.7663,14.73165 25.6132,14.84787 15.2967,0.12831 26.1983,2.1266 28.4574,5.21614 1.042,1.42491 2.3758,6.21938 2.9641,10.65433 1.3477,10.15921 0.025,11.58701 -14.1566,15.27992 -20.0108,5.21091 -30.4607,11.73167 -34.5729,21.5737 -3.0972,7.41246 -2.6604,23.5312 0.8468,31.25378 3.8095,8.3883 10.8607,12.5844 26.0212,15.48508 18.7382,3.58521 22.4711,7.26231 20.5132,20.2064 -1.5258,10.08755 -2.3298,10.65084 -17.3786,12.1762 -18.5851,1.88376 -25.5674,4.2312 -32.1423,10.80615 -6.3934,6.39342 -9.4118,14.90301 -9.4118,26.53442 0,14.26411 5.5477,20.95251 23.5294,28.36759 16.0422,6.61525 19.3684,9.93891 18.2454,18.23162 -1.065,7.8648 -3.831,14.26009 -6.6327,15.3352 -1.1441,0.43901 -6.1661,0.12894 -11.1601,-0.68895 -4.994,-0.81791 -13.3422,-1.49121 -18.5516,-1.49622 -20.9174,-0.0201 -33.6296,13.66384 -33.657,36.22957 -0.013,9.7159 4.4953,16.04864 18.0717,25.39222 16.0818,11.06792 18.0504,17.28527 9.1686,28.95744 -4.6952,6.17034 -6.6224,6.25065 -23.526,0.98036 -16.0914,-5.01704 -25.7534,-4.6038 -34.9703,1.49564 -10.9564,7.25062 -18.1529,24.45266 -15.1818,36.29007 0.5591,2.22794 5.6117,9.05798 11.228,15.17787 12.8297,13.98036 15.5602,18.92399 13.0997,23.71734 -2.6558,5.17357 -11.1256,13.71138 -13.6023,13.71138 -1.1809,0 -8.9575,-3.6714 -17.2814,-8.15872 -12.4488,-6.71097 -16.5572,-8.17225 -23.1532,-8.2353 -10.35116,-0.099 -21.11647,6.32302 -28.42632,16.95742 -8.39689,12.2158 -7.34926,19.1787 6.11547,40.6458 2.36282,3.767 4.7513,9.1255 5.30772,11.9076 0.90787,4.5393 0.26301,5.7757 -6.28437,12.0492 -4.01283,3.845 -8.36694,6.9909 -9.67578,6.9909 -1.30885,0 -7.67973,-4.5222 -14.15749,-10.0493 -6.47775,-5.5272 -14.31736,-11.2545 -17.42135,-12.7274 -11.48266,-5.4489 -29.83321,0.5178 -39.1469,12.7287 -6.52314,8.5523 -6.72535,18.6209 -0.70012,34.8609 6.62861,17.8664 6.42984,21.0753 -1.66885,26.942 -9.19385,6.66 -14.05581,6.2391 -20.46041,-1.7713 -9.98848,-12.4929 -19.24254,-22.0414 -23.49072,-24.2382 -10.71183,-5.5393 -29.25903,-0.7377 -39.73515,10.2869 -4.44367,4.6763 -4.70554,5.6677 -4.6996,17.7933 0.003,7.0626 0.61691,16.495 1.36324,20.9609 1.252,7.4918 1.05311,8.4237 -2.57106,12.0479 -4.667,4.667 -16.43704,8.2861 -19.9424,6.132 -1.31202,-0.8063 -4.60746,-5.2889 -7.32319,-9.9613 -11.10062,-19.0986 -13.91674,-22.6289 -20.94468,-26.2562 -13.70864,-7.0754 -34.42531,-1.3408 -42.52996,11.7728 -2.98935,4.8369 -3.73113,8.7523 -4.45025,23.4906 -0.62827,12.8762 -1.51478,18.3373 -3.25955,20.0796 -3.5749,3.5699 -20.6693,5.0273 -23.2,1.978 z m -41.39293,-86.7262 c 5.12683,-3.591 2.85364,-5.3829 -6.82861,-5.3829 -7.48912,0 -8.53488,-0.3844 -8.53488,-3.1373 0,-2.5272 1.04576,-3.1372 5.37815,-3.1372 2.97691,0 6.57253,-1.1944 8.05323,-2.6751 2.9575,-2.9575 2.99467,-2.936 -7.54902,-4.3565 -10.13614,-1.3656 -9.93242,-4.8799 0.34011,-5.8669 7.89448,-0.7586 13.27601,-3.564 11.70691,-6.1028 -0.47279,-0.765 -6.12954,-1.3909 -12.57058,-1.3909 -11.24855,0 -11.77386,0.1654 -13.30406,4.1902 -0.87622,2.3046 -1.38816,9.1687 -1.13765,15.2536 0.412,10.0078 0.82963,11.2522 4.37702,13.0416 5.43422,2.7412 15.85671,2.5148 20.06938,-0.4358 z m -38.77226,-5.2623 c 4.68921,-4.6892 6.1421,-8.8794 2.62444,-7.569 -16.08858,5.9935 -18.89045,5.4338 -19.69366,-3.934 -0.36855,-4.2984 0.31211,-6.1278 2.97338,-7.9918 3.14799,-2.205 3.97726,-2.1492 9.43508,0.6352 7.57405,3.864 9.15819,3.8401 8.12197,-0.1223 -1.30609,-4.9946 -8.07013,-9.374 -14.47804,-9.374 -6.71671,0 -12.13503,4.2577 -13.52961,10.6316 -0.51386,2.3487 -1.22128,5.1921 -1.57203,6.3188 -1.10649,3.5543 3.74665,12.8424 7.49673,14.3475 7.26516,2.9157 13.7958,1.884 18.62174,-2.942 z m 88.59921,2.3095 c 2.0301,-1.5174 5.0054,-1.9734 8.92726,-1.3682 3.2353,0.4992 5.88236,0.3501 5.88236,-0.3314 0,-2.9688 -5.38973,-17.9854 -6.45527,-17.9854 -0.64705,0 -1.62453,1.4117 -2.17219,3.1372 -1.1719,3.6924 -2.30699,3.8794 -6.21233,1.0238 -2.00275,-1.4645 -2.33569,-2.4564 -1.08413,-3.2299 0.99345,-0.6139 1.80626,-2.8545 1.80626,-4.9789 0,-5.0686 -6.21294,-8.1147 -12.22007,-5.9913 -3.47515,1.2284 -4.27316,2.4957 -4.37465,6.9472 -0.0682,2.9947 -0.95061,6.9866 -1.96079,8.8711 -2.69473,5.027 -2.24932,9.4944 1.3006,13.0443 3.71639,3.7164 12.1559,4.1554 16.56295,0.8615 z m -126.40196,-5.9595 c 1.0123,-2.804 2.246,-10.6408 2.74153,-17.4152 0.84133,-11.5016 0.70365,-12.2797 -2.07923,-11.7508 -2.03307,0.3864 -3.5633,2.8054 -4.81478,7.6113 -4.49311,17.254 -0.94466,35.6731 4.15248,21.5547 z m 171.11865,-1.2317 c 1.66877,-0.8931 3.03413,-3.0107 3.03413,-4.7059 0,-1.9077 1.06241,-3.0821 2.78823,-3.0821 1.53353,0 4.40027,-1.1291 6.37054,-2.5091 3.21028,-2.2486 3.85745,-2.2613 6.2314,-0.1222 2.95426,2.6619 11.27652,5.174 11.27652,3.4038 0,-2.2143 -11.06812,-16.1729 -17.25827,-21.7653 -7.23387,-6.5354 -10.57566,-7.146 -11.73623,-2.1444 -2.52378,10.8765 -5.51533,26.8852 -5.51533,29.5143 0,3.4793 0.60988,3.6582 4.80901,1.4109 z m -199.2192,-1.5668 c 3.56985,-1.9106 18.72378,-23.0141 18.72378,-26.075 0,-1.1907 -1.67271,-2.107 -3.84622,-2.107 -2.82234,0 -5.20867,1.9803 -8.96435,7.439 l -5.11814,7.439 -1.36359,-5.4782 c -2.32802,-9.3528 -5.70976,-15.9188 -7.59784,-14.7519 -3.24571,2.006 0.90472,35.1561 4.4016,35.1561 0.40369,0 2.09784,-0.7299 3.76476,-1.622 z m -24.34369,-11.7926 c -0.96574,-6.44 -0.67564,-7.4508 2.95914,-10.3099 6.85604,-5.393 4.21384,-12.9375 -6.45525,-18.4325 -4.56079,-2.3489 -12.26439,-2.2431 -14.28197,0.1962 -2.96867,3.5891 -8.17251,19.1426 -8.17333,24.4287 -6e-4,4.0221 0.59625,5.0972 2.6125,4.7059 1.69866,-0.3296 4.03193,-4.7199 6.66668,-12.5439 l 4.05338,-12.0367 5.23483,2.2146 c 6.4464,2.7271 5.76548,6.3285 -1.09178,5.7744 -5.83907,-0.4718 -5.92431,0.062 -1.59682,10.0027 6.20964,14.2637 11.81226,17.6014 10.07262,6.0005 z m 278.24141,-3.1954 c 3.74985,-3.1553 4.82625,-5.3254 4.82625,-9.7302 v -5.6691 l -5.94849,5.8086 c -3.27168,3.1947 -6.92199,5.8085 -8.11179,5.8085 -4.02711,0 -7.90052,-5.0798 -7.90052,-10.3612 0,-6.4552 2.99256,-8.2701 11.96865,-7.2583 5.55167,0.6257 6.85489,0.297 6.85489,-1.7291 0,-3.4533 -5.69251,-6.1773 -12.90895,-6.1773 -10.98575,0 -17.51241,10.2276 -13.76762,21.5744 3.81803,11.5688 15.96276,15.3275 24.98758,7.7337 z m -315.47893,-5.743 c -1.24091,-1.9411 -5.18378,-4.9411 -8.76194,-6.6666 -7.05439,-3.4019 -7.24104,-3.6486 -5.19896,-6.8728 1.15724,-1.8272 2.54789,-1.7664 8.86945,0.3875 4.12337,1.405 7.78745,2.2641 8.14242,1.9091 1.6901,-1.69 -3.32539,-7.195 -8.14224,-8.9368 -4.43719,-1.6045 -5.13384,-2.4368 -3.92707,-4.6916 1.37266,-2.5649 2.02455,-2.5826 10.13439,-0.2755 4.76706,1.3561 9.18178,1.9493 9.81048,1.3182 2.9191,-2.9301 -17.45915,-13.1813 -22.41924,-11.2779 -2.8854,1.1073 -11.86905,20.0027 -12.25594,25.7781 -0.23487,3.5061 0.96051,4.3084 12.28886,8.2479 6.90197,2.4002 12.8116,4.4193 13.13251,4.4869 0.32093,0.068 -0.43181,-1.4653 -1.67272,-3.4065 z m 348.5719,-6.6829 c 5.59963,-2.8957 7.81789,-6.769 7.79218,-13.6061 l -0.0196,-5.2012 -6.19202,6.6667 c -3.40562,3.6667 -6.84802,6.6667 -7.64981,6.6667 -2.81109,0 -7.95543,-5.5298 -8.91075,-9.5785 -1.3953,-5.9132 2.61909,-9.2451 11.13902,-9.2451 8.42985,0 8.96272,-2.455 1.23379,-5.6844 -6.79778,-2.8403 -12.01272,-1.8305 -17.16722,3.324 -6.5385,6.5385 -3.99664,20.7568 4.65376,26.0317 5.91646,3.6077 9.10007,3.7396 15.12059,0.6262 z m -383.66324,-10.141 c 6.00376,-2.2826 5.58909,-10.6958 -0.89095,-18.0762 -2.70306,-3.0786 -4.46278,-6.0493 -3.91049,-6.6016 0.55228,-0.5522 4.22107,0.6025 8.15287,2.5661 7.83685,3.9139 9.65597,3.6056 7.08378,-1.2006 -6.45596,-12.063 -25.23506,-12.9171 -25.23506,-1.1476 0,1.9745 2.47699,6.2164 5.50443,9.4265 3.02743,3.21 5.09065,6.5058 4.58492,7.3241 -0.50688,0.8202 -4.77838,-0.72 -9.51906,-3.4324 -4.72976,-2.7061 -8.96268,-4.557 -9.40649,-4.1132 -1.0845,1.0845 3.33452,9.4656 6.27954,11.9098 2.02416,1.6799 8.82336,4.309 12.25847,4.7401 0.5909,0.074 2.88502,-0.5536 5.09804,-1.395 z m 422.57693,-10.242 c 12.54721,-8.3034 7.56327,-12.0983 -6.23916,-4.7507 -7.08943,3.774 -7.28927,3.7926 -8.08418,0.7529 -0.59862,-2.2891 0.38542,-3.7375 3.7057,-5.4545 4.34692,-2.2479 8.78038,-8.0733 7.28346,-9.5703 -0.39696,-0.3969 -3.96808,0.8555 -7.93582,2.7832 -11.46277,5.569 -12.42108,-0.078 -1.2138,-7.1533 4.7835,-3.0197 6.02582,-4.6645 5.38218,-7.1258 -0.46025,-1.76 -1.08312,-3.1999 -1.38417,-3.1999 -0.44993,0 -20.79674,10.8028 -22.2815,11.83 -1.10804,0.7666 6.5844,17.7115 10.19554,22.4588 3.46975,4.5613 4.69682,5.1574 9.13511,4.4371 2.81983,-0.4576 7.96633,-2.711 11.43664,-5.0075 z m -168.63448,0.053 c 43.2111,-6.8317 76.66928,-17.2625 113.21878,-35.2966 129.88583,-64.0876 207.73553,-183.69868 216.46993,-332.59224 1.1101,-18.92274 -2.1604,-58.81659 -7.0349,-85.81368 -8.4176,-46.62015 -29.69647,-98.65186 -57.60322,-140.85316 -28.52732,-43.13975 -66.76744,-81.08074 -110.33254,-109.46945 -64.43728,-41.98984 -145.51856,-64.57716 -221.78037,-61.78271 -41.28488,1.51279 -72.20443,6.93287 -108.46436,19.01339 -92.60405,30.85235 -169.54815,94.01697 -216.09694,177.39734 -45.89402,82.20754 -60.03168,180.62259 -39.28712,273.48538 12.43767,55.67709 39.23554,111.49929 75.01301,156.25837 21.75875,27.22108 58.23977,60.08759 89.78423,80.8885 49.98509,32.96096 118.01432,56.64556 175.41055,61.06986 23.93265,1.8448 72.21606,0.6177 90.70295,-2.305 z m 192.37392,-15.7004 c 5.89199,-3.0468 11.04101,-9.7271 11.04101,-14.3243 0,-2.2322 -1.61184,-4.73 -4.10742,-6.3652 -3.86789,-2.5343 -4.54336,-2.5364 -11.58308,-0.036 -8.94299,3.1762 -9.41306,3.211 -9.38814,0.6943 0.011,-1.0784 2.48128,-3.5555 5.4902,-5.5046 7.23946,-4.68955 7.46646,-8.90849 0.39575,-7.3555 -7.15894,1.57237 -11.55627,4.8225 -13.77635,10.1822 -1.60234,3.8684 -1.49464,5.2598 0.66185,8.551 3.02643,4.6189 8.66462,5.1289 17.21366,1.5568 5.04319,-2.1071 5.68176,-2.1094 5.68176,-0.02 0,1.2949 -2.65743,4.0319 -5.90539,6.0823 -3.24795,2.0503 -6.8638,4.8827 -8.0352,6.2941 -1.89575,2.2843 -1.58295,2.5663 2.84602,2.5663 2.73671,0 6.99612,-1.0447 9.46533,-2.3216 z m -493.96687,-2.215 c -1.99164,-3.7214 -10.6953,-11.1329 -13.1521,-11.1995 -1.01224,-0.028 -0.50766,-1.0589 1.1213,-2.2922 2.63219,-1.9927 3.72302,-1.796 9.80393,1.7676 l 6.8422,4.0098 v -3.7972 c 0,-2.0884 -1.76471,-5.455 -3.92157,-7.4813 -7.08979,-6.6605 -3.28272,-8.70794 5.84444,-3.1431 5.25577,3.2044 10.62616,4.1485 10.62616,1.868 0,-1.5123 -7.03205,-8.1573 -12.50591,-11.81766 -6.24289,-4.17463 -10.09177,-3.17088 -17.13317,4.46816 -12.15038,13.1816 -11.96842,17.7363 1.03809,25.9848 8.61401,5.4629 13.88958,6.2159 11.43663,1.6326 z m 528.14515,-24.4303 c 11.56643,-12.47119 2.84305,-22.95004 -12.86827,-15.45784 -7.96012,3.79592 -8.64216,1.39796 -1.64154,-5.77133 6.5459,-6.70363 6.50791,-8.83239 -0.128,-7.16688 -6.33693,1.59047 -13.20541,9.23491 -13.20541,14.69728 0,8.4714 6.43174,10.68351 17.0893,5.87762 3.55966,-1.60517 6.99384,-2.39678 7.63152,-1.75912 1.47443,1.47445 -8.30601,10.31187 -11.41223,10.31187 -2.24491,0 -3.27457,4.8053 -1.4258,6.6541 2.01258,2.0125 11.17728,-2.2284 15.96037,-7.3857 z m -558.03965,3.8338 c 0,-1.7447 -2.83851,-6.2517 -6.30782,-10.01545 -4.71004,-5.10977 -5.73476,-7.06308 -4.04544,-7.71133 3.45343,-1.32519 15.46862,-17.95363 14.318,-19.81539 -1.55399,-2.5144 -3.04058,-2.03007 -9.48277,3.08954 -5.99533,4.76449 -13.58103,14.21267 -15.31726,19.07804 -0.68471,1.91873 1.84841,4.7809 9.37097,10.58829 5.67012,4.3772 10.5692,7.9586 10.88681,7.9586 0.31764,0 0.57751,-1.4275 0.57751,-3.1723 z M 954.1184,974.13603 c 7.07459,-7.51885 7.65384,-13.35791 1.99255,-20.08598 -5.64617,-6.71009 -12.12542,-9.06106 -18.12416,-6.5763 -11.94187,4.94648 -14.60155,17.81949 -5.64397,27.31729 7.50553,7.95817 13.8509,7.7673 21.77558,-0.65501 z m -610.90244,-0.33134 c 2.98437,-2.98438 2.26886,-3.91896 -3.74782,-4.89533 -7.07379,-1.14792 -10.05612,-3.58052 -10.05612,-8.2025 0,-4.34344 7.17504,-10.44833 11.51259,-9.79548 3.11652,0.46907 3.98118,1.5761 7.62159,9.75786 3.3116,7.44275 5.96388,6.90832 5.96388,-1.20173 0,-13.82645 -11.26136,-20.7128 -23.51211,-14.37768 -11.44942,5.92072 -12.71797,19.6042 -2.57883,27.81722 3.87499,3.13886 12.0591,3.63535 14.79682,0.89764 z m 634.029,-24.39218 c -0.008,-3.18027 -1.47952,-5.31412 -5.60064,-8.12101 -5.56279,-3.78882 -5.5728,-3.81644 -2.06179,-5.69547 1.94048,-1.03851 6.21057,-1.52841 9.48911,-1.08868 4.02598,0.54 7.24468,-0.0416 9.91565,-1.79165 5.78521,-3.79064 4.85264,-5.65615 -2.8275,-5.65615 -6.53311,0 -6.83555,-0.21603 -8.2353,-5.88236 -1.31786,-5.33476 -1.99241,-5.92718 -7.24613,-6.36388 -4.98715,-0.41454 -6.67825,0.40374 -12.15687,5.88236 -9.07248,9.07248 -8.71036,13.40345 1.87142,22.38264 13.7085,11.63235 16.86816,12.81998 16.85205,6.3342 z M 308.7777,941.41713 c 5.79612,-4.03322 13.74442,-6.51443 20.86839,-6.51443 3.32225,0 6.04045,-0.68106 6.04045,-1.51345 0,-2.48257 -5.67467,-4.76107 -11.85767,-4.76107 -6.39637,0 -6.12476,1.38308 -2.69538,-13.7255 0.6278,-2.76585 0.1109,-3.52941 -2.38927,-3.52941 -2.35646,0 -3.9268,1.92828 -6.00772,7.3771 -1.54954,4.05741 -5.17632,10.46754 -8.05951,14.24472 -4.17859,5.47426 -4.86736,7.3192 -3.39484,9.09349 2.34143,2.82124 2.49617,2.80738 7.49555,-0.67145 z m -10.76227,-23.37719 c -0.0527,-2.57756 -2.86295,-5.37356 -7.95699,-7.91643 -7.17858,-3.58346 -8.35464,-11.3423 -2.31868,-15.29721 6.38836,-4.18582 11.39828,-1.97829 13.55768,5.97395 0.9934,3.6583 2.05637,7.5338 2.36212,8.61223 1.10644,3.90237 5.01036,1.9189 5.71841,-2.90534 1.08163,-7.3696 -0.29261,-11.98689 -5.09908,-17.13223 -9.4492,-10.1154 -28.20024,-3.17878 -28.20024,10.4322 0,7.61337 4.01613,14.55193 9.90543,17.11336 5.4548,2.37246 12.0695,2.98792 12.03135,1.11947 z m 706.69127,-4.71144 c 0,-3.09197 -26.38337,-19.3582 -27.79596,-17.13713 -3.11079,4.89124 -0.0392,8.34371 15.22544,17.11352 5.27756,3.03205 12.57052,3.04574 12.57052,0.0237 z m 18.4514,-29.87577 c 2.564,-5.43472 4.2481,-10.29504 3.7424,-10.80073 -1.8115,-1.81146 -8.8793,4.37322 -12.0094,10.50888 -5.4954,10.77185 -9.7998,7.24956 -4.4919,-3.67572 3.4015,-7.00123 3.1029,-12.85259 -0.5953,-11.66498 -1.078,0.34616 -3.8588,4.10234 -6.1796,8.34703 -3.5249,6.44685 -4.40656,7.23063 -5.35465,4.75993 -0.62425,-1.62675 -0.25977,-5.14774 0.80994,-7.82443 3.77821,-9.45409 4.63361,-13.43832 3.08981,-14.3924 -2.57738,-1.59293 -5.43301,2.02797 -9.91359,12.57036 -4.22027,9.92992 -4.24594,10.18383 -1.41392,13.98738 1.5864,2.13062 7.11968,6.40304 12.29611,9.49424 l 9.4118,5.62038 2.9733,-3.52432 c 1.6353,-1.93837 5.071,-7.97091 7.635,-13.40562 z m -748.41886,-4.46558 c 11.28669,-5.93098 18.19814,-12.55913 15.70042,-15.05684 -0.84127,-0.84127 -7.27657,1.52846 -15.86693,5.8428 -10.78878,5.41845 -14.21848,7.86568 -13.5317,9.65542 0.50598,1.31856 0.91996,3.04553 0.91996,3.83772 0,2.22395 1.11078,1.85198 12.77825,-4.2791 z m 758.18126,-18.07338 c 11.2271,-8.8312 11.5385,-29.54057 0.4443,-29.54057 -1.8955,0 -6.1231,3.10248 -10.0378,7.36647 -3.7198,4.05156 -7.3113,6.81837 -7.9812,6.14846 -0.6699,-0.6699 0.7208,-4.6907 3.0906,-8.9351 3.4693,-6.2139 3.8303,-7.71709 1.853,-7.71709 -9.4394,0 -16.9389,16.2886 -11.1467,24.21002 3.8968,5.32913 10.3336,3.58648 17.7234,-4.79824 5.9082,-6.7037 6.7471,-7.2014 6.7999,-4.03443 0.033,1.98695 -1.7044,6.20964 -3.8613,9.38376 -3.8964,5.73412 -5.1616,11.31735 -2.5645,11.31735 0.7464,0 3.3026,-1.53029 5.6803,-3.40063 z m -767.71739,-3.06982 c 0.8794,-1.64317 3.26462,-2.94132 5.40437,-2.94132 2.27176,0 4.79727,-1.4759 6.20696,-3.62737 2.05279,-3.13295 2.09345,-4.71952 0.29831,-11.63998 -2.58805,-9.97712 -6.4969,-16.10522 -10.27285,-16.10522 -3.80289,0 -19.0311,6.17933 -22.52598,9.14063 -2.94789,2.49783 -3.7622,8.11428 -1.17647,8.11428 0.86274,0 1.56862,1.48156 1.56862,3.29235 0,12.94332 15.40156,23.28763 20.49704,13.76663 z M 201.35355,698.68962 c 1.31686,-0.50534 5.37027,-4.91711 9.00758,-9.80393 3.6373,-4.88683 6.83425,-9.16062 7.10431,-9.4973 0.27007,-0.33667 3.37012,1.98895 6.88901,5.16805 5.84612,5.28162 12.09609,8.77744 15.69267,8.77744 0.77622,0 2.20251,-1.47837 3.16953,-3.28526 2.19798,-4.10697 -1.74324,-8.78274 -11.98078,-14.21375 -3.80708,-2.01964 -6.89848,-4.37919 -6.86978,-5.24341 0.086,-2.58943 5.07346,-7.7079 11.14521,-11.43794 4.80754,-2.95341 5.877,-4.63839 6.78435,-10.68901 0.59243,-3.95059 0.76021,-7.49983 0.37285,-7.88721 -0.38736,-0.38735 -3.20174,0.76926 -6.25418,2.57023 -6.03073,3.55822 -8.68829,2.20138 -5.89844,-3.01148 2.69416,-5.03409 1.92012,-6.41006 -3.60592,-6.41006 -6.76277,0 -10.02938,3.69426 -11.88628,13.44239 -2.67936,14.0658 -2.08134,13.93198 -16.30987,3.64968 -14.37583,-10.38873 -20.30943,-11.61139 -21.15079,-4.35829 -0.37283,3.21407 1.09291,5.48761 6.74572,10.46343 3.97213,3.49641 9.96195,7.71269 13.3107,9.36953 l 6.08865,3.01241 -6.1627,9.26928 c -6.63159,9.9745 -7.83629,16.77187 -3.42759,19.3397 3.25756,1.89735 4.08198,1.98571 7.23575,0.7755 z m 891.75945,-3.86404 c 2.1005,-3.75534 1.8219,-4.65508 -4.5821,-14.79505 -4.8027,-7.60459 -6.2079,-11.00014 -4.7529,-11.48513 5.0374,-1.67913 21.5391,-14.2518 23.6589,-18.02578 2.1009,-3.74029 2.0746,-4.42581 -0.2594,-6.75982 -3.7076,-3.70766 -8.107,-2.0795 -21.2846,7.87718 -12.778,9.65472 -13.2715,9.52381 -15.3084,-4.06082 -1.4156,-9.44066 -5.4823,-13.85017 -12.7734,-13.85017 -4.7242,0 -5.417,0.42803 -4.443,2.7451 1.9512,4.64217 2.7465,9.80393 1.5105,9.80393 -0.6458,0 -3.5887,-1.49229 -6.5398,-3.31619 -2.9512,-1.82389 -5.6203,-3.05919 -5.9314,-2.7451 -0.3111,0.3141 0.013,3.74756 0.7207,7.62992 0.9286,5.09533 2.5176,7.9315 5.7124,10.19608 5.2996,3.75657 13.1211,11.64365 13.1211,13.2311 0,0.62404 -3.5862,2.8143 -7.9693,4.86724 -9.1346,4.27842 -14.9288,10.92518 -12.041,13.81292 3.5683,3.56828 10.7789,2.01638 17.0796,-3.67594 7.2022,-6.50674 9.554,-6.80125 12.948,-1.62143 9.6144,14.67342 16.7068,18.08703 21.1341,10.17196 z M 585.25869,258.36909 c 2.9315,-1.97554 5.33001,-4.26966 5.33001,-5.09804 0,-0.82838 -3.70589,-1.71951 -8.2353,-1.98028 -9.31397,-0.53623 -10.40636,-1.94015 -3.52942,-4.53591 3.09932,-1.16986 4.70589,-2.86305 4.70589,-4.95959 0,-2.61026 -1.20014,-3.28555 -6.66667,-3.75118 l -6.66667,-0.56786 6.74077,-2.92664 c 5.22593,-2.26895 6.63599,-3.6598 6.27452,-6.18901 -0.40441,-2.8296 -1.46451,-3.22783 -7.99138,-3.00204 -4.13881,0.14317 -9.3474,1.45432 -11.57462,2.91366 -3.71178,2.43205 -3.97848,3.32607 -3.19785,10.72007 0.46842,4.43671 2.29897,11.41969 4.06789,15.51773 3.04732,7.05965 3.53652,7.45099 9.31452,7.45099 3.75804,0 8.14371,-1.37841 11.42831,-3.5919 z m 132.72918,-3.16107 c 0.85222,-1.89371 2.48077,-8.16596 3.61902,-13.93832 1.6939,-8.59034 1.70107,-10.93915 0.0395,-12.94119 -2.8678,-3.4555 -5.89587,-3.04444 -10.34459,1.40429 -4.44234,4.44232 -4.94269,7.13013 -1.3273,7.13013 1.82173,0 2.2875,0.981 1.67572,3.52942 -0.46599,1.94117 -1.32841,6.18421 -1.91647,9.42896 -1.73879,9.59403 4.52195,13.67985 8.25409,5.38671 z m -107.25315,-1.26344 c 5.05376,-2.30264 7.95715,-7.99511 6.67778,-13.09257 -1.02642,-4.08954 -4.17222,-6.09035 -12.31399,-7.83197 -6.47242,-1.38454 -5.19029,-4.00025 1.96079,-4.00025 7.40551,0 8.45795,-3.20292 2.36438,-7.19559 -9.17149,-6.00939 -22.50225,4.13202 -18.64489,14.18414 1.18684,3.09285 8.63641,7.12911 13.15794,7.12911 1.81924,0 2.87146,0.70588 2.33826,1.56862 -0.53321,0.86275 -3.42056,1.56863 -6.41632,1.56863 -3.60747,0 -5.78117,0.87119 -6.43681,2.57978 -2.13346,5.55969 9.05962,8.85053 17.31286,5.0901 z m 86.97667,-1.59777 c 0.31485,-1.65775 -0.96427,-2.91918 -3.6415,-3.59112 l -4.12684,-1.03577 5.61699,-6.21733 c 6.37166,-7.05268 7.1589,-12.50951 2.47972,-17.18869 -3.75736,-3.75736 -14.34801,-4.28692 -17.19237,-0.85967 -3.45299,4.16059 -1.27343,7.96183 4.31203,7.52037 2.77045,-0.21897 5.0372,0.0608 5.0372,0.62164 0,0.56088 -3.17647,4.41568 -7.05883,8.56623 -7.62016,8.14656 -8.60386,11.30914 -4.31373,13.8685 4.38954,2.61866 18.30579,1.37776 18.88733,-1.68416 z m -59.35026,-16.66035 c 0.0522,-7.24731 0.63424,-9.80393 2.23162,-9.80393 3.16752,0 5.71196,-3.68836 4.21519,-6.11021 -1.51719,-2.45486 -23.34063,-2.65074 -25.76016,-0.23121 -1.81153,1.81153 1.12613,5.81165 5.22295,7.11193 2.16753,0.68795 2.96225,2.99049 3.474,10.06528 0.38555,5.3303 1.89583,11.05398 3.60502,13.66256 l 2.94149,4.48928 1.99957,-4.68988 c 1.09976,-2.57944 2.0314,-9.10166 2.07032,-14.49382 z m 17.32566,11.36344 c 0,-2.08109 -5.46749,-4.1966 -6.96801,-2.69609 -1.62015,1.62017 -0.89244,6.35912 1.08565,7.06975 2.42013,0.86943 5.88236,-1.70482 5.88236,-4.37366 z"
     id="path3750"
     inkscape:connector-curvature="0"
     transform="scale(0.74999943)" />
  <path
     style="fill:#999999;stroke-width:1.56862867"
     d="m 353.34338,758.20505 c -2.79855,-1.37962 -6.6809,-5.06943 -8.62745,-8.19958 l -3.53919,-5.69116 v -72.15692 c 0,-68.249 0.16226,-72.42501 2.99597,-77.10711 1.64778,-2.7226 5.62625,-6.42849 8.84103,-8.2353 l 5.84507,-3.28511 289.19841,0.002 c 326.63821,0.003 296.79414,-1.22427 303.70823,12.48681 3.50088,6.94248 3.52942,7.55788 3.52942,76.13827 0,68.5804 -0.0285,69.19579 -3.52942,76.13827 -6.91497,13.71283 22.9655,12.48869 -303.9218,12.4511 -262.01785,-0.0301 -289.89362,-0.27071 -294.50027,-2.54171 z m 79.74841,-43.74771 c 7.5082,-2.64904 13.17545,-7.26479 16.3077,-13.28195 3.00307,-5.769 4.45741,-20.44371 2.52605,-25.48858 -1.64227,-4.28974 -1.73483,-4.31373 -16.64149,-4.31373 -12.43096,0 -15.15814,0.43808 -15.97475,2.56615 -1.83396,4.77922 1.74341,7.60367 10.26436,8.10407 7.82821,0.45971 8.07374,0.61789 8.07374,5.20116 0,13.76508 -13.95846,21.79778 -24.06444,13.84841 -5.8221,-4.57966 -7.71491,-12.69304 -7.07729,-30.3363 l 0.55347,-15.3148 5.85933,-5.36769 c 8.47059,-7.75986 12.40366,-7.18859 22.44286,3.25977 6.03105,6.27686 9.44253,8.62745 12.52124,8.62745 4.03568,0 4.18175,-0.2724 3.15425,-5.88235 -2.57798,-14.07526 -13.14006,-22.35296 -28.52165,-22.35296 -10.25347,0 -15.64883,2.00268 -22.06345,8.18963 -6.65865,6.42234 -8.87713,17.2553 -7.98215,38.97735 0.56134,13.62426 1.31034,17.64836 4.13574,22.21995 7.31859,11.84173 22.07392,16.42947 36.48648,11.34442 z m 92.94679,0.9272 c 3.66166,-1.39217 6.99933,-7.18309 5.18549,-8.99694 -0.45514,-0.45513 -9.69607,-1.21051 -20.5354,-1.67863 l -19.70789,-0.85112 v -11.5365 -11.5365 h 17.25491 c 16.85536,0 17.25437,-0.0817 17.2309,-3.52942 -0.0488,-7.15607 -2.02524,-8.08071 -18.70572,-8.75069 l -15.78009,-0.63381 v -10.79795 -10.79796 l 14.50981,-0.18559 c 19.61191,-0.25086 23.7905,-1.26284 24.45099,-5.92162 0.29117,-2.05375 -0.41472,-4.33252 -1.56863,-5.06393 -3.38593,-2.1462 -45.85397,-1.70042 -48.05885,0.50446 -2.10916,2.10917 -2.74528,74.40077 -0.68186,77.49035 0.63385,0.94907 2.21128,2.12863 3.50539,2.62126 3.96524,1.50942 38.76425,1.23735 42.90095,-0.33541 z m 28.51077,-0.10472 c 2.86612,-1.0897 5.1963,-4.0247 7.47227,-9.41178 l 3.30736,-7.82828 h 12.90699 c 11.04418,0 12.98371,-0.39619 13.43844,-2.7451 0.2923,-1.5098 1.77581,1.10378 3.29672,5.80796 1.52092,4.70418 3.91351,9.82183 5.3169,11.37256 3.09453,3.4194 13.04579,3.90908 13.04579,0.64195 0,-2.0806 -18.71475,-55.60133 -24.34876,-69.63297 -4.07018,-10.13688 -11.21267,-12.83093 -15.73181,-5.93385 -3.36549,5.13641 -25.58709,66.00978 -26.80557,73.43064 -1.06807,6.50483 0.33766,7.25073 8.10167,4.29886 z m 137.1381,-5.10433 c -0.77844,-2.79229 -4.29646,-10.62146 -7.81788,-17.39816 l -6.40256,-12.32127 6.32901,-5.41739 c 13.26677,-11.35587 11.27762,-30.8559 -3.89858,-38.2186 -8.49359,-4.12064 -39.76481,-4.57074 -43.70646,-0.62909 -2.0948,2.09478 -2.46499,7.76424 -2.46499,37.75021 0,21.32324 0.64252,36.4858 1.62381,38.31936 2.11302,3.94821 8.75701,3.94821 10.87003,0 0.96361,-1.80053 1.62382,-15.75168 1.62382,-34.31376 v -31.27962 l 4.55142,-0.91028 c 7.02921,-1.40584 20.79492,1.29613 23.1731,4.54848 6.52813,8.92776 -1.18948,19.49908 -14.23534,19.49908 -3.5664,0 -6.0205,0.94768 -7.00372,2.70459 -1.92701,3.44339 0.49464,8.27102 4.15796,8.28904 1.71404,0.008 4.68172,3.79525 8.18012,10.43803 10.68539,20.28941 13.43356,23.79505 19.11329,24.38135 7.12112,0.73509 7.52519,0.36282 5.90697,-5.44198 z m 111.19709,2.89727 c 11.78054,-6.09196 14.22076,-13.88749 14.28073,-45.62125 0.026,-13.80393 -0.38022,-26.69402 -0.9029,-28.64463 -0.55169,-2.05888 -2.61908,-3.9654 -4.92852,-4.54504 -7.17941,-1.80192 -8.19596,1.97238 -8.19596,30.43012 0,19.69769 -0.54468,26.71374 -2.34399,30.19322 -7.10247,13.73466 -24.85015,12.01961 -28.96581,-2.79912 -0.88766,-3.19606 -1.61785,-16.44081 -1.62265,-29.43279 -0.009,-26.38228 -1.11764,-30.17018 -8.29694,-28.36829 -5.40034,1.3554 -6.36606,8.02117 -5.53771,38.22363 0.54554,19.89087 1.1133,24.08976 4.00317,29.60527 3.6283,6.92485 9.30611,11.43267 16.84874,13.37682 6.28192,1.61919 20.43336,0.2858 25.66184,-2.41795 z m 53.273,0.33957 c 1.34677,-1.34679 1.88235,-11.43408 1.88235,-35.45335 v -33.571 l 11.37256,1.10593 c 8.23166,0.80048 12.34732,2.00304 14.90197,4.35421 7.47229,6.87708 2.28526,21.52496 -7.6223,21.52496 -7.54212,0 -12.37772,2.67693 -12.37772,6.85217 0,10.45145 26.25496,6.30936 34.63887,-5.46477 5.00539,-7.02941 5.27839,-21.12801 0.53221,-27.485 -7.16787,-9.60059 -10.27763,-10.72723 -30.97109,-11.22059 -10.98761,-0.26196 -20.10147,0.21319 -21.4549,1.11856 -1.97908,1.32389 -2.35294,7.37801 -2.35294,38.10251 0,20.09068 0.50726,37.76381 1.12724,39.27362 1.28935,3.1399 7.52545,3.66104 10.32375,0.86275 z"
     id="path3752"
     inkscape:connector-curvature="0"
     transform="scale(0.74999943)" />
  <path
     style="fill:#999999;stroke-width:1.56862867"
     d="m 414.11797,568.93708 c 0,-4.08909 12.81385,-28.39845 22.16936,-42.05786 52.06372,-76.01506 135.76827,-117.31697 225.16737,-111.10317 33.77739,2.34774 63.65194,10.3071 93.84001,25.00143 42.49196,20.68335 70.45946,45.27212 97.24565,85.49744 10.36245,15.5615 24.31129,40.52825 24.31975,43.52945 0.002,0.64706 -7.67496,1.17647 -17.05953,1.17647 -13.14556,0 -17.50487,-0.53261 -18.98825,-2.31998 -1.39873,-1.68536 -2.71032,-1.89991 -4.79483,-0.78431 -4.10056,2.19455 -5.3286,1.89734 -3.12605,-0.75657 4.32552,-5.21194 -8.31747,-26.88374 -28.18494,-48.31284 -12.66746,-13.66315 -17.89885,-17.11988 -22.98345,-15.18671 -3.42157,1.30088 -3.64712,1.096 -2.74602,-2.4943 0.58735,-2.34019 0.12376,-4.95749 -1.1542,-6.51512 -2.66615,-3.2498 -25.05417,-17.79027 -37.06088,-24.07012 -9.50764,-4.97277 -30.43947,-12.75788 -31.48664,-11.71072 -0.34035,0.34036 -1.17062,2.94877 -1.84505,5.79648 l -1.22623,5.17764 -0.16057,-5.63057 c -0.20677,-7.25114 -2.8018,-8.44814 -27.45392,-12.66354 -33.28062,-5.69085 -72.15058,-2.33032 -106.04008,9.16776 -13.64613,4.62988 -29.80395,12.4741 -29.80395,14.46908 0,0.7568 -1.65103,1.79038 -3.66897,2.29685 -4.60885,1.15675 -25.93933,15.08685 -29.81805,19.473 -1.59432,1.80289 -2.43501,4.02835 -1.86821,4.94546 0.6088,0.98507 -0.38561,1.66748 -2.42988,1.66748 -7.79946,0 -27.68699,22.11459 -25.6524,28.52502 0.70126,2.20948 0.0626,2.84755 -2.85006,2.84755 -2.06462,0 -5.21082,1.58824 -6.99156,3.52942 -5.45024,5.94129 -14.582,21.26613 -15.54691,26.09069 -1.11932,5.59659 -4.46788,6.45835 -25.09561,6.45835 -11.0374,0 -14.7059,-0.50983 -14.7059,-2.04376 z"
     id="path3754"
     inkscape:connector-curvature="0"
     transform="scale(0.74999943)" />
  <path
     style="fill:#999999;stroke-width:1.56862867"
     d="m 617.25539,915.97067 c -16.55457,-1.9723 -48.764,-10.02474 -63.5058,-15.87662 -18.93909,-7.51803 -41.79207,-19.86468 -55.51431,-29.9924 -31.54758,-23.28375 -65.2557,-63.27143 -76.97102,-91.31014 l -2.28032,-5.45757 h 17.17812 17.17812 l 7.10031,9.80393 c 14.66153,20.24425 14.81945,20.39908 19.79078,19.40482 4.15139,-0.83028 4.40545,-0.63725 2.88948,2.19538 -2.12568,3.97186 -0.27238,7.52839 9.20018,17.65531 8.16569,8.72978 14.50591,12.55925 18.35083,11.08381 2.29246,-0.8797 2.39076,-0.55509 0.75659,2.49839 -1.03302,1.9302 -1.64455,3.67506 -1.35896,3.87747 0.28559,0.2024 7.19523,4.53283 15.35477,9.62318 30.09889,18.77726 49.03728,26.39193 77.71357,31.24674 8.62746,1.4606 16.92158,3.002 18.43139,3.42533 2.12966,0.59713 2.77286,-0.22111 2.86894,-3.64974 l 0.12376,-4.41944 1.54193,4.21299 c 1.33943,3.65965 2.68463,4.35577 10.24194,5.29999 10.14803,1.26791 24.97074,0.0338 27.80043,-2.31467 1.31596,-1.09215 2.48956,-1.11212 3.54142,-0.0602 1.05187,1.05186 6.73161,0.56515 17.13916,-1.4687 17.03588,-3.32915 24.19347,-5.62671 24.19347,-7.76595 0,-0.76446 1.72881,-1.05945 3.8418,-0.65553 4.59809,0.87899 22.97288,-5.88461 32.48252,-11.95652 3.74713,-2.39254 10.82594,-6.71263 15.73068,-9.6002 4.90474,-2.88758 11.74655,-7.48867 15.204,-10.22466 5.95409,-4.71163 6.14598,-5.12363 3.63131,-7.79617 -2.50165,-2.65871 -2.48817,-2.76317 0.23324,-1.80895 1.58852,0.55699 5.32079,-0.14163 8.29393,-1.55248 7.32541,-3.47613 20.97475,-18.98598 20.97475,-23.83376 0,-3.09466 0.41126,-3.4592 2.21436,-1.96277 2.40484,1.99585 2.5931,1.78698 17.15764,-19.03578 8.46046,-12.09584 9.92895,-12.66993 30.47711,-11.91473 l 12.98634,0.47728 -6.09843,12.54902 c -8.7207,17.94502 -22.93939,36.4036 -44.78085,58.13411 -36.11785,35.93437 -78.6256,58.36395 -129.13356,68.13845 -19.69629,3.81169 -56.08067,5.28243 -74.97962,3.03083 z"
     id="path3756"
     inkscape:connector-curvature="0"
     transform="scale(0.74999943)" />
  <path
     style="fill:#999999;stroke-width:1.56862867"
     d="m 607.0593,1023.3375 c -11.64707,-1.2798 -23.71473,-2.9933 -26.81702,-3.8076 -3.32067,-0.8716 -14.1576,-8.252 -26.34878,-17.9446 -11.38953,-9.05519 -22.51401,-16.9172 -24.72108,-17.47115 -4.28223,-1.07476 -9.9196,1.30989 -19.3681,8.19283 -4.07991,2.97209 -6.69901,3.77548 -10.19608,3.12761 -7.52109,-1.3934 -41.45078,-18.85039 -52.09634,-26.80382 -10.90349,-8.14614 -12.9684,-11.02224 -26.3351,-36.68053 -5.33479,-10.2405 -11.23885,-19.39145 -13.62962,-21.12509 -3.87226,-2.80792 -4.98004,-2.89677 -13.52037,-1.08439 -5.11639,1.08578 -10.88463,1.47199 -12.81832,0.85826 -5.8447,-1.85504 -15.63379,-11.7182 -27.75176,-27.96178 -20.55894,-27.55828 -23.85558,-35.15585 -25.48507,-58.73388 -1.40736,-20.36398 -2.95228,-22.93159 -17.73748,-29.47919 -4.49229,-1.9894 -6.74785,-4.49776 -9.749,-10.84166 -9.31395,-19.68807 -17.47956,-59.07829 -16.21817,-78.23501 0.57841,-8.78425 2.49986,-15.58352 8.82455,-31.2268 10.63742,-26.3102 10.58367,-27.8953 -1.32,-38.92748 -8.58602,-7.95743 -9.4184,-9.30205 -9.4184,-15.21451 0,-12.40975 9.27987,-53.9131 14.15006,-63.28486 1.07246,-2.06374 10.68037,-12.68464 21.35093,-23.602 13.05676,-13.35877 19.40102,-20.9906 19.40102,-23.33849 0,-1.9188 -2.1896,-7.31574 -4.86578,-11.99322 -3.83242,-6.69837 -4.65764,-9.61398 -3.88571,-13.72875 1.11416,-5.93895 9.38602,-19.25706 23.40311,-37.68017 17.19435,-22.59907 18.95178,-24.07617 41.2042,-34.63174 22.33565,-10.59503 24.14424,-12.50738 24.14424,-25.52947 0,-4.34505 1.25918,-6.68243 6.00047,-11.13848 7.5031,-7.05171 35.73497,-25.04895 52.11713,-33.22363 18.04917,-9.0065 23.9769,-10.00151 47.95974,-8.0504 28.78545,2.34183 29.93405,1.98313 36.66787,-11.45136 6.88663,-13.73933 10.01417,-15.37724 36.07846,-18.89453 31.78095,-4.28873 39.18649,-3.17648 68.24834,10.25027 16.75979,7.74313 25.31678,10.9132 27.54723,10.20528 1.77952,-0.5648 6.83963,-4.2279 11.2447,-8.14021 8.00007,-7.10521 8.02006,-7.11236 17.54334,-6.28073 11.81414,1.03169 45.4694,10.78664 58.34516,16.91131 7.17803,3.41441 11.87723,7.23654 18.65346,15.17192 16.77079,19.63966 20.3157,21.50855 33.58112,17.70408 7.25187,-2.07981 14.40047,1.28178 32.28784,15.18317 33.40581,25.96174 44.18593,39.23364 50.06884,61.64207 8.42194,32.07979 11.27097,36.07846 25.70578,36.07846 8.18044,0 9.05633,0.38918 15.08258,6.70172 6.92871,7.25786 18.99671,30.37055 24.27864,46.49858 3.89953,11.90697 4.09458,20.59201 0.93343,41.56506 -4.16684,27.64561 -3.22404,31.07273 10.12843,36.8168 4.3444,1.86891 8.94994,5.00211 10.23453,6.96263 3.38958,5.17318 5.92558,32.52349 5.23218,56.42773 l -0.6008,20.71393 -9.81687,19.33005 c -10.62977,20.93075 -10.69973,21.52887 -3.7472,32.03484 5.39111,8.14651 4.37783,14.58837 -7.46508,47.45871 -14.24559,39.53913 -17.52159,44.11215 -44.23741,61.75172 -23.83941,15.74039 -25.51315,18.36159 -21.44264,33.58081 3.54758,13.26398 1.54609,17.13578 -19.72001,38.14741 -23.90871,23.62259 -28.73452,26.18355 -59.23229,31.43332 -27.41746,4.71954 -29.87619,6.15549 -31.41903,18.34959 -0.61321,4.84656 -2.16425,10.84109 -3.44677,13.3212 -3.1378,6.06786 -18.70948,13.99796 -43.28149,22.04167 -31.31844,10.2522 -32.55166,10.3838 -53.95474,5.7563 -10.14925,-2.1943 -19.58971,-3.9897 -20.97881,-3.9897 -1.3891,0 -6.24247,4.0257 -10.78526,8.9461 l -8.25963,8.946 -19.28535,0.3565 c -10.60693,0.196 -28.81475,-0.6908 -40.46182,-1.9707 z m 58.89487,-21.6968 c 2.11765,-2.11764 3.85028,-5.20251 3.85028,-6.85526 0,-2.63564 -8.79053,-16.16146 -18.70565,-28.78201 -6.34413,-8.07519 -17.5007,-6.8273 -25.07745,2.80499 -7.96675,10.12808 -1.50508,21.66248 17.44706,31.14383 13.08978,6.54855 17.30886,6.86535 22.48576,1.68845 z m -61.33675,-4.34189 c 3.55882,-5.08093 3.22306,-6.58575 -5.36271,-24.03499 -8.50289,-17.28081 -11.97404,-20.3943 -20.12949,-18.05535 -10.88554,3.12193 -17.20021,11.17908 -15.15328,19.3347 1.4222,5.66653 11.06788,16.489 19.41279,21.78117 8.89109,5.63856 17.68319,6.04206 21.23269,0.97447 z m 123.22629,-4.35685 c 5.97412,-5.97413 4.1845,-10.63965 -9.08194,-23.67654 -17.08649,-16.79084 -24.99994,-17.75959 -33.34005,-4.0814 -7.02018,11.51341 -1.18813,21.03456 16.59518,27.09257 13.6722,4.65754 21.62963,4.86255 25.82681,0.66537 z m 58.3079,-19.85098 c 4.46725,-4.04281 3.74377,-12.16681 -1.44511,-16.22712 -10.45745,-8.183 -26.30159,-17.25528 -30.13521,-17.25528 -6.90113,0 -13.0005,7.77623 -13.81639,17.61485 -0.78724,9.49311 1.39856,12.52027 11.69087,16.19097 8.85685,3.15874 30.08316,2.95507 33.70584,-0.32342 z m -288.7004,-3.52168 c 4.65787,-3.77171 4.67158,-11.37437 0.0458,-25.40826 -1.82061,-5.52347 -5.45161,-19.57208 -8.06889,-31.21915 -2.61727,-11.64706 -5.79779,-23.4706 -7.06783,-26.27453 -1.27004,-2.80392 -1.93577,-5.09804 -1.47939,-5.09804 0.45638,0 6.18906,3.61641 12.73931,8.03646 15.26442,10.30032 45.79181,25.0159 64.55377,31.11781 71.42876,23.23061 151.92933,16.16111 215.94427,-18.96404 47.21584,-25.90746 84.79761,-63.95216 110.59274,-111.95501 3.7089,-6.90196 7.83067,-13.43138 9.15952,-14.50981 3.09568,-2.51232 33.7688,-2.64995 43.51724,-0.19525 5.79152,1.45831 8.19138,1.31495 13.79183,-0.82388 12.16542,-4.64601 24.50745,-17.56701 24.50745,-25.65707 0,-1.60072 -1.76471,-5.30232 -3.92157,-8.22579 -2.77434,-3.7604 -3.92157,-7.32143 -3.92157,-12.17259 0,-7.93834 1.23021,-10.68807 9.84429,-22.00358 4.82419,-6.33709 6.45953,-10.03784 6.93161,-15.68629 0.83746,-10.02016 -0.91117,-12.16088 -9.66002,-11.826 l -7.11588,0.27236 V 671.461 c 0,-6.27009 1.13707,-9.2113 6.86107,-17.74729 8.41304,-12.54605 11.63416,-24.02249 8.55416,-30.47744 -1.74658,-3.66043 -3.23929,-4.49445 -8.76028,-4.89461 -6.35191,-0.46037 -6.65495,-0.71267 -6.65495,-5.5405 0,-8.28566 -3.93009,-20.92437 -8.60366,-27.66832 -4.21235,-6.07842 -4.30989,-6.65036 -2.59257,-15.20154 3.54598,-17.65672 1.70966,-54.09453 -3.24736,-64.43702 -5.20716,-10.86435 -18.06066,-9.86969 -22.31923,1.72717 -1.3137,3.57745 -4.45635,12.15151 -6.98365,19.05347 -2.52731,6.90197 -7.1171,18.54904 -10.19955,25.88238 -3.08247,7.33334 -5.61739,14.56864 -5.63317,16.07844 -0.0372,3.55934 -3.55092,3.51575 -6.80907,-0.0844 -1.40839,-1.55625 -5.6334,-9.85038 -9.38892,-18.43139 C 879.50701,521.02206 861.012,494.20113 836.8634,469.66561 811.25134,443.64317 782.82314,424.831 747.11863,410.2776 c -34.33917,-13.99686 -63.78852,-19.87618 -100.0593,-19.976 -46.32887,-0.1275 -86.07881,9.06872 -126.24276,29.20649 -56.75009,28.45388 -98.99446,72.9802 -126.12688,132.93998 -8.84133,19.5384 -11.72308,22.21061 -10.70435,9.92597 0.85188,-10.27251 -1.65882,-18.23744 -7.6315,-24.21012 -6.6816,-6.6816 -12.32037,-7.39801 -22.29304,-2.83238 -14.14807,6.4772 -39.23687,34.26037 -49.7705,55.11554 -5.68853,11.26252 -5.86263,15.57442 -0.83195,20.60509 4.77462,4.77462 12.20755,5.04662 19.32492,0.70715 2.82477,-1.72226 5.47183,-3.13139 5.88235,-3.13139 0.41052,0 0.7464,15.17648 0.7464,33.72552 v 33.72551 h -3.78213 c -10.39127,0 -25.48784,33.19531 -19.87022,43.69191 2.60224,4.86234 11.05824,4.52226 17.25749,-0.69405 l 4.82623,-4.06103 v 10.93309 c 0,7.83789 -1.1102,13.88263 -3.92157,21.35174 -3.83197,10.18062 -5.24882,25.45522 -2.92332,31.5154 1.41609,3.69024 7.64144,5.71421 12.22074,3.97318 2.09397,-0.79613 5.64574,-4.58471 7.89282,-8.41907 l 4.0856,-6.97155 7.81029,2.96769 c 5.73156,2.1778 11.901,2.96767 23.17995,2.96767 9.96307,0 16.21845,0.68974 17.78259,1.96079 1.32711,1.07843 6.49062,9.37255 11.47447,18.43138 4.98384,9.05883 13.34692,22.41801 18.58462,29.68707 9.4305,13.08796 35.63539,40.88521 46.91909,49.77017 l 5.85025,4.60659 -14.47771,-0.55554 c -12.39267,-0.47553 -15.19807,-0.10212 -19.4795,2.59241 -13.61405,8.56821 -7.66846,34.5713 15.19245,66.44429 13.75713,19.18036 21.75274,26.27868 29.60053,26.27868 3.69101,0 7.60237,-1.18756 9.81652,-2.98048 z m 345.99017,-42.47582 c 16.11283,-3.86301 38.35401,-12.75521 45.46017,-18.17534 6.93716,-5.29123 9.10915,-10.75847 6.64113,-16.7168 -1.02003,-2.46257 -3.12316,-5.15631 -4.6736,-5.98609 -1.55045,-0.82977 -11.15953,-1.50282 -21.35351,-1.49567 -10.19398,0.008 -27.07547,-0.82831 -37.51443,-1.8566 -22.65981,-2.23208 -27.33055,-1.03578 -32.04636,8.20799 -7.93739,15.55856 -7.07458,30.4685 2.08635,36.05426 6.70719,4.08962 24.26597,4.07614 41.40025,-0.0317 z M 399.63121,886.49902 c 3.76013,-6.19136 10.42024,-33.55038 9.27038,-38.08171 -1.27774,-5.03527 -6.15783,-7.73792 -15.75986,-8.72796 -6.54791,-0.67514 -8.77251,-0.23809 -11.96496,2.35073 -3.64722,2.95757 -3.92157,4.14976 -3.92157,17.04092 0,14.86345 3.46837,27.42101 8.36244,30.27697 5.25505,3.06661 11.14459,1.86507 14.01357,-2.85895 z m -39.59858,-46.72783 c 3.40971,-1.30843 18.00688,-31.09713 18.00688,-36.74695 0,-8.85152 -15.57931,-16.48194 -24.71338,-12.1041 -2.35272,1.12764 -5.27048,4.12168 -6.48392,6.65343 -2.5847,5.39279 -4.15196,23.34304 -2.70947,31.03218 1.76557,9.4113 8.37532,14.05289 15.89989,11.16544 z m 574.6407,-14.06769 c 19.20649,-9.57098 25.05155,-22.40194 13.07855,-28.70973 -1.99178,-1.04933 -5.52119,-1.50085 -7.84314,-1.00336 -2.32195,0.49749 -9.39496,1.54419 -15.71777,2.32601 -13.922,1.72145 -17.52359,4.39555 -17.52359,13.01085 0,6.30567 1.74334,10.92693 5.93489,15.7322 3.47558,3.98449 12.46208,3.4324 22.07106,-1.35597 z M 395.84703,492.80189 c 2.3599,-2.10991 2.78377,-4.28127 2.2571,-11.56242 -1.15827,-16.01294 -8.10285,-18.87624 -27.22019,-11.22304 -17.66723,7.07268 -25.10938,17.03533 -18.33464,24.54421 2.54086,2.81619 4.14562,2.96058 21.56864,1.94079 14.14437,-0.82791 19.54581,-1.74755 21.72909,-3.69954 z m 494.09536,-35.11096 c 2.36444,-2.85128 2.69306,-4.99569 1.82735,-11.92464 -2.3542,-18.84239 -8.47601,-30.07969 -16.38667,-30.07969 -7.01365,0 -9.66076,6.72296 -12.06154,30.63324 -1.06648,10.62148 0.22654,12.71434 9.23784,14.95218 7.31257,1.81598 14.06021,0.4259 17.38302,-3.58109 z m -457.99673,-9.17698 c 3.55804,-2.79875 4.13311,-4.43567 4.13311,-11.76471 0,-11.00787 -3.36613,-14.78812 -13.16811,-14.78812 -10.19704,0 -27.38859,5.80554 -32.5879,11.00485 -5.20659,5.20659 -5.37351,6.31842 -1.6407,10.92824 2.25066,2.77946 5.70983,3.85278 17.64707,5.4756 20.61818,2.80296 20.98048,2.79086 25.61653,-0.85586 z m 415.56346,-29.85583 c 3.77075,-4.65668 3.0017,-11.91055 -2.54792,-24.03252 -4.81583,-10.51913 -10.94721,-16.58609 -16.76224,-16.58609 -7.29591,0 -8.50781,3.25638 -8.08919,21.7356 0.35941,15.86559 0.58515,16.87986 4.53958,20.39718 3.52631,3.13651 5.35908,3.58629 12.00957,2.94726 5.78079,-0.55546 8.639,-1.73071 10.8502,-4.46143 z m -371.36348,-6.55269 c 3.03069,-2.60688 4.38661,-5.56178 4.98393,-10.86114 0.71288,-6.32465 0.29029,-7.81023 -3.22027,-11.3208 -3.65288,-3.65287 -5.21487,-4.03999 -16.26902,-4.03209 -14.96663,0.0107 -22.30506,1.91403 -27.11332,7.03218 -3.16728,3.37142 -3.42334,4.45373 -1.86358,7.87703 1.97528,4.33528 4.31067,5.45093 23.02325,10.99862 15.64231,4.63745 15.42739,4.63423 20.45901,0.3062 z m 320.58192,-22.73361 c 5.52404,-4.10502 5.8422,-10.03983 1.06202,-19.81016 -7.81009,-15.96327 -20.99165,-24.94719 -27.69825,-18.87781 -3.78483,3.42523 -3.78114,6.04363 0.0331,23.51355 3.66253,16.77529 6.71075,20.31346 16.38284,19.01616 3.38963,-0.45464 7.98879,-2.18343 10.22034,-3.84174 z m -272.09154,-2.89494 c 5.46223,-2.09606 9.50901,-18.13452 5.92862,-23.49667 -2.61828,-3.92123 -9.78423,-5.88486 -23.88219,-6.54424 -14.39809,-0.67343 -15.0469,-0.55831 -18.63862,3.30724 -6.17791,6.6489 -3.85186,10.46455 11.93954,19.58551 13.12163,7.57894 19.05031,9.29798 24.65265,7.14816 z m 136.93917,-4.80989 c 3.06801,-1.45587 8.29235,-5.22893 11.60962,-8.38458 6.98305,-6.64281 7.94409,-13.26361 3.0825,-21.23599 -3.89878,-6.39351 -18.40726,-15.85071 -33.04216,-21.5382 -13.58884,-5.28096 -39.23002,-12.0766 -45.56722,-12.0766 -6.47621,0 -12.55943,5.52081 -12.55943,11.39829 0,5.67212 2.09766,7.71146 34.43775,33.48026 28.63082,22.81323 30.72276,23.7267 42.03894,18.35682 z m 76.12283,-10.46981 c 12.34078,-5.22329 13.40144,-14.08161 3.12379,-26.08875 -6.5527,-7.65535 -18.31768,-15.69641 -22.96562,-15.69641 -3.86808,0 -8.83602,4.35269 -8.83602,7.74173 0,4.99492 11.13641,29.18182 15.03331,32.65046 4.60422,4.09824 6.73823,4.3161 13.64454,1.39297 z"
     id="path3758"
     inkscape:connector-curvature="0"
     transform="scale(0.74999943)" />
  <path
     style="fill:#999999;stroke-width:1.56862867"
     d="m 579.21614,687.37667 c -5.39216,-0.25685 -9.80393,-0.73811 -9.80393,-1.06946 0,-0.90976 9.52178,-26.54742 10.0593,-27.08494 0.25692,-0.25692 2.76083,5.94506 5.56424,13.78218 2.80341,7.83712 4.84673,14.38204 4.54072,14.54427 -0.30602,0.16223 -4.96817,0.0848 -10.36033,-0.17205 z"
     id="path3760"
     inkscape:connector-curvature="0"
     transform="scale(0.74999943)" />
  <path
     style="fill:#999999;stroke-width:0.39215717"
     d="m 595.00534,700.78779 c -0.72213,-2.09496 -1.6393,-4.34564 -2.03816,-5.00151 -0.71465,-1.17515 -1.49743,-1.25364 -1.49743,-0.15013 0,0.3108 -0.15189,0.56509 -0.33753,0.56509 -0.18565,0 -0.44061,-0.87029 -0.56659,-1.93397 -0.26529,-2.23998 -1.47464,-4.82379 -2.63972,-5.63985 -0.78193,-0.54768 -0.76343,-0.57541 0.54826,-0.82148 1.35047,-0.25335 1.35554,-0.26225 0.97674,-1.714 -0.20942,-0.80264 -0.82966,-2.83818 -1.37832,-4.52343 -1.15422,-3.54534 -0.9996,-4.57271 0.17663,-1.17354 0.43333,1.25226 2.49072,7.01622 4.57199,12.80879 2.08126,5.79257 3.71953,10.72569 3.6406,10.9625 -0.0789,0.2368 -0.73435,-1.28351 -1.45647,-3.37847 z"
     id="path3762"
     inkscape:connector-curvature="0"
     transform="scale(0.74999943)" />
</svg>
